/* XPM */
static char *ProjectCenter[] = {
/* columns rows colors chars-per-pixel */
"32 32 256 2",
"   c #000000",
".  c #180506",
"X  c #101111",
"o  c #1B1A1A",
"O  c #230708",
"+  c #2A0809",
"@  c #250909",
"#  c #370A0A",
"$  c #381111",
"%  c #271E21",
"&  c #232224",
"*  c #252829",
"=  c #362C2C",
"-  c #27333C",
";  c #430F0F",
":  c #480E0F",
">  c #4C1112",
",  c #481E1F",
"<  c #531414",
"1  c #5C1516",
"2  c #561A1B",
"3  c #5A191A",
"4  c #631617",
"5  c #641718",
"6  c #651819",
"7  c #6B191A",
"8  c #731B1C",
"9  c #7C1C1D",
"0  c #431F20",
"q  c #631F20",
"w  c #791F20",
"e  c #522021",
"r  c #5D2323",
"t  c #592829",
"y  c #493A3D",
"u  c #6D2425",
"i  c #6A2D2D",
"p  c #7B2D2D",
"a  c #792426",
"s  c #6F3434",
"d  c #7C3233",
"f  c #7B3A3B",
"g  c #5C4732",
"h  c #393D40",
"j  c #303C43",
"k  c #4D3C4B",
"l  c #3E4446",
"z  c #4D4547",
"x  c #4B4050",
"c  c #585A5A",
"v  c #604C4C",
"b  c #774247",
"n  c #6B4B56",
"m  c #7F5D5F",
"M  c #7F535C",
"N  c #5E5F61",
"B  c #6D5E60",
"V  c #785D63",
"C  c #596466",
"Z  c #4B697C",
"A  c #606163",
"S  c #716866",
"D  c #7E7868",
"F  c #766979",
"G  c #60707E",
"H  c #767878",
"J  c #821D1E",
"K  c #8C1E1F",
"L  c #851F20",
"P  c #8E1F20",
"I  c #832223",
"U  c #8B2222",
"Y  c #832C2D",
"T  c #8B2A2C",
"R  c #932223",
"E  c #9A2425",
"W  c #9A2728",
"Q  c #9B292A",
"!  c #972F31",
"~  c #853838",
"^  c #8A3939",
"/  c #9C3A3B",
"(  c #953535",
")  c #A12425",
"_  c #A52728",
"`  c #A42B2C",
"'  c #AB2A2B",
"]  c #AB2627",
"[  c #B32A2B",
"{  c #BB2C2D",
"}  c #AA2F30",
"|  c #A43435",
" . c #A33B3C",
".. c #B13A3B",
"X. c #BC3233",
"o. c #C62E2F",
"O. c #CF2E2F",
"+. c #C52F30",
"@. c #CE2F30",
"#. c #D02F30",
"$. c #C33334",
"%. c #CE3132",
"&. c #C43B3C",
"*. c #CB3C3D",
"=. c #D03233",
"-. c #D03A3B",
";. c #A4561D",
":. c #9B7517",
">. c #976D2E",
",. c #A3722E",
"<. c #873F41",
"1. c #943C40",
"2. c #A83F42",
"3. c #BF3F40",
"4. c #95474B",
"5. c #82594E",
"6. c #904A52",
"7. c #885657",
"8. c #915757",
"9. c #9A5053",
"0. c #AA4243",
"q. c #B14748",
"w. c #B54849",
"e. c #BC4B4C",
"r. c #BD4F50",
"t. c #A85859",
"y. c #B7595A",
"u. c #BA5656",
"i. c #B3605D",
"p. c #855A67",
"a. c #905F60",
"s. c #836767",
"d. c #827A66",
"f. c #896D71",
"g. c #936C79",
"h. c #887979",
"j. c #817D7C",
"k. c #957D7E",
"l. c #AB666B",
"z. c #BC6870",
"x. c #AB7172",
"c. c #BC7071",
"v. c #C24243",
"b. c #C24748",
"n. c #CB4A4D",
"m. c #CC4142",
"M. c #CE5648",
"N. c #C45051",
"B. c #CA5354",
"V. c #C2595A",
"C. c #D6585A",
"Z. c #D15656",
"A. c #C47B7C",
"S. c #AC8935",
"D. c #AD963C",
"F. c #D3A516",
"G. c #DFAD18",
"H. c #E1AF19",
"J. c #EBB617",
"K. c #E8B51B",
"L. c #E6B219",
"P. c #C59D26",
"I. c #C19F3E",
"U. c #D8AE2E",
"Y. c #DBB030",
"T. c #E2B125",
"R. c #AA9349",
"E. c #B79D4E",
"W. c #B39A53",
"Q. c #AEA14D",
"!. c #B2A044",
"~. c #A2986D",
"^. c #B49866",
"/. c #A0A062",
"(. c #ADA071",
"). c #C3A448",
"_. c #3E6F8C",
"`. c #6F6C80",
"'. c #667489",
"]. c #7F7C8E",
"[. c #717D91",
"{. c #9F7F80",
"}. c #9C7F88",
"|. c #A07C83",
" X c #A97F87",
".X c #73868C",
"XX c #62879E",
"oX c #698A9B",
"OX c #758297",
"+X c #4D80A2",
"@X c #5688A5",
"#X c #5E8FAF",
"$X c #5485A5",
"%X c #6490A9",
"&X c #6E93A7",
"*X c #7099A8",
"=X c #789BAC",
"-X c #6F9CB0",
";X c #6E9FBB",
":X c #729BB4",
">X c #6BA1BD",
",X c #71A2BE",
"<X c #76A6C1",
"1X c #7CABC6",
"2X c #7EB1CD",
"3X c #878585",
"4X c #8A8C8C",
"5X c #8D8B83",
"6X c #9F8787",
"7X c #918A8B",
"8X c #9C8C8C",
"9X c #9E8796",
"0X c #9E8890",
"qX c #9B9999",
"wX c #A28080",
"eX c #BE8989",
"rX c #A18F99",
"tX c #B28A92",
"yX c #AC969B",
"uX c #BE9899",
"iX c #BC949E",
"pX c #9D97A5",
"aX c #B19CA7",
"sX c #98A5AB",
"dX c #84A7BD",
"fX c #95A8BA",
"gX c #A9A6A6",
"hX c #A9A1A7",
"jX c #B8A8A8",
"kX c #B3ADAF",
"lX c #B6AFBC",
"zX c #C08183",
"xX c #85B1CB",
"cX c #95B4C6",
"vX c #98B9CB",
"bX c #86B8D6",
"nX c #8CBAD4",
"mX c #8DBEDA",
"MX c #92BCD5",
"NX c #93BFD8",
"BX c #A0BDCF",
"VX c #ACB4C4",
"CX c #96C1D9",
"ZX c #9AC3DB",
"AX c #AAC3D3",
"SX c #A7C7D9",
"DX c #ADCADC",
"FX c #A6C2D2",
"GX c #B1CBDC",
"HX c #AACDE1",
"JX c #B2CFE0",
"KX c #D0D0D0",
"LX c #DAD4D4",
"PX c #E4E5E5",
"IX c #F4F4F4",
"UX c None",
/* pixels */
"UXUXUXUXUXUXUXUXUXUXUXUXUXUXUXUXUXUXUXUXUXUXUXUXUXUXUXUXUXUXUXUX",
"UXUXUXUXUXUXUXY q.e.B.C.UXUXUXUXUXUXUXUXUXUXUXUXUXUXUXUXUXUXUXUX",
"UXUXUXUXUXUXUX6 5 2 u Y  .w.N.Z.UXUXUXUXUXUXUXUXUXUXUXUXUXUXUXUX",
"UXUXUXUXUXUXUX4 4 < > > > 2 u a <.~.8XwXUXUXUXUXUXUXUXUXUXUXUXUX",
"UXUXUXUXUXUXUX4 5 4 1 1 1 < > > > t t i ~ 2.w.B.UXUXUXUXUXUXUXUX",
"UXUXUXUXUXUXUX6 6 7 7 6 4 3 1 1 > + @ # > > 3 u ^ / q.N.C.UXUXUX",
"UXUXUXUXUXUXUX6 6 8 8 8 7 7 7 5 @     o 0 < > : : > < q p / | UX",
"UXUXF.H.F.UXUX4 7 9 9 9 8 9 8 7 . X % H yXr 1 1 < < > > : 6 J UX",
"UXUXUXG.J.F.UX4 7 J J J 9 J 9 9 $ c KXPXLXs 4 6 5 1 1 3 < 8 UXUX",
"UXUXUXUXJ.J.UX4 w 4.! P U L w 2 q 8XIXIXjXu 8 7 7 7 7 6 6 J UXUX",
"UXUXUXUXR.U.L.;.g.AXyX| E E 7 % 2 T 8.8.Y 9 9 9 9 8 7 7 8 U UXUX",
"UXUXUXUXUXd.).I.=XmXHXaX0.] 9 % 2 E K J J L J 9 I n x p 9 L UXUX",
"UXUX4XgX7.B 3X(.~.*XnXHXhX<.a % e ` ` ` Q W U T |.cX$XF L J UXUX",
"UXUXs.4X7Xj.C D Y.Q.*XnXcXh = o 0 W ` ` } ' |  XDXCX<X].M k UXUX",
"UXUXp v 4XqXc A W.J.!.*X<X- % & y a I U W | tXGXNX<XOXpXcX_.UXUX",
"UXv./ d b s.h.4X5XQ.K.D.oX_.o * z 7 9 9 I |.GXNX;X:XfX#X%X_.@XUX",
"UX%.*.*...( p f 7.3X/.H.S.G - o z V Y a }.DXMX;X:XBXGX%X@X$XUXUX",
"UX%.O.%.-.-.&.../ 7.5X~.P.,.y & C FXrX0XDXNX;X:XBXJXNX1X:XUXUXUX",
"UX%.%.%.O.O.=.=.*.3.l.f.g :.>.S .XvXGXGXNX<XdXAXHXbX,X`.b UXUXUX",
"UXUX%.%.%.%.%.%.%.=.eXx.9.M ,.^.sXvXDXMX1XvXSXZXxX&Xp.T UXUXUXUX",
"UXUX%.%.%.%.%.%.%.=.A.gXqXkXy.M.zXlXvXnXSXSXnX<X'.6.W R UXUXUXUX",
"UXUX=.=.%.%.%.%.%.@.V.gXk.uXy.O.-.n.z.iXVXxX;X[.1.` R L UXUXUXUX",
"UXUX[ { =.=.%.%.O.-.z.8Xt.&.%.%.O.O.#.-.n.l.9XtX| R R 8 UXUXUXUX",
"UXUXUXUXR { %.=.#.m.u...t.$.%.%.%.%.%.%.@.=.-.3.R P R 6 UXUXUXUX",
"UXUXUXUXUXUXL ' o.-.e.b.u.$.@.%.%.%.%.%.%.%.=.[ R R U ; UXUXUXUX",
"UXUXUXUXUXUXUXUXUXE X.v.&.%.%.%.%.%.%.%.%.%.%.[ U R 5 UXUXUXUXUX",
"UXUXUXUXUXUXUXUXUXUXUXR [ %.%.%.%.%.@.%.%.%.%._ R w O UXUXUXUXUX",
"UXUXUXUXUXUXUXUXUXUXUXUXUXI ' o.=.=.=.%.%.%.%._ P > UXUXUXUXUXUX",
"UXUXUXUXUXUXUXUXUXUXUXUXUXUXUXUXE { %.=.%.%.%.) 6 UXUXUXUXUXUXUX",
"UXUXUXUXUXUXUXUXUXUXUXUXUXUXUXUXUXUXU [ @.=.%.U O UXUXUXUXUXUXUX",
"UXUXUXUXUXUXUXUXUXUXUXUXUXUXUXUXUXUXUXUXUX' [ < UXUXUXUXUXUXUXUX",
"UXUXUXUXUXUXUXUXUXUXUXUXUXUXUXUXUXUXUXUXUXUXUXUXUXUXUXUXUXUXUXUX"
};
