/* XPM */
static char *hdhr[] = {
/* columns rows colors chars-per-pixel */
"32 32 5 1",
"  c #000000",
". c #0000FF",
"X c #808080",
"o c #C0C0C0",
"O c None",
/* pixels */
"OOOOOOOOOOOOOOOOOOOOOOOOOOOOOOOO",
"OOOOOOOOOOOOOOOOOOOOOOOOOOOOOOOO",
"OOOOOOOOOOOOOOOOOOOOOOOOOOOOOOOO",
"OOOOOOOOOOOOOOOOOOOOOOOOOOOOOOOO",
"OOOOOO  OOOOOOOO              OO",
"O  OOO  OOO  OOO ............ OO",
"OO  OO  OO  OOOO ............ OO",
"OOO  O  O  OOOOO ............ OO",
"OOOO      OOOOOO ............ OO",
"OOOOO    OOOOOOO ............ OO",
"OOOOOO  OOOOOOOO ............ OO",
"OOOOOO  OOOOOOOO ............ OO",
"OOOOOO  OOOOOOOO ............ OO",
"OOOOOO  OOOOOOOO ............ OO",
"OOOOOO  OOOOOOOO ............ OO",
"OOOOOO  OOOOOOOO              OO",
"OOOOOO  OOOOOOOOOOOOOOOOOOOOOOOO",
"OOOOOO  OOOOOOOOOOOOOOOOOOOOOOOO",
"                                ",
" oooooooooooooooooooooooooooooo ",
"oooooooooooooooooooooooooooooooo",
"oooXXooooXXXXXXXXXXXXXXXoooooooo",
"oooXXooooXXXXXXXXXXXXXXXoooooooo",
"oooooooooooooooooooooooooooooooo",
" oooooooooooooooooooooooooooooo ",
"   XX                      XX   ",
"OO    OOOOOOOOOOOOOOOOOOOO    OO",
"OOOOOOOOOOOOOOOOOOOOOOOOOOOOOOOO",
"OOOOOOOOOOOOOOOOOOOOOOOOOOOOOOOO",
"OOOOOOOOOOOOOOOOOOOOOOOOOOOOOOOO",
"OOOOOOOOOOOOOOOOOOOOOOOOOOOOOOOO",
"OOOOOOOOOOOOOOOOOOOOOOOOOOOOOOOO"
};
