/* XPM */
static char *cb_bib[] = {
/* columns rows colors chars-per-pixel */
"32 32 102 2",
"   c #6A5B4A",
".  c #8F7151",
"X  c #937556",
"o  c #9A7C5B",
"O  c #8C7F71",
"+  c #817D78",
"@  c #AD8255",
"#  c #B88856",
"$  c #B58B5F",
"%  c #BC8E5C",
"&  c #9F8C77",
"*  c #A28361",
"=  c #A78865",
"-  c #AA8A67",
";  c #AC8C69",
":  c #B08E66",
">  c #AD906F",
",  c #BC9264",
"<  c #BF966A",
"1  c #C58F59",
"2  c #C5925C",
"3  c #CA965C",
"4  c #CF9A5F",
"5  c #C79560",
"6  c #C89762",
"7  c #CD9B64",
"8  c #C49B6E",
"9  c #CD9D69",
"0  c #D09D66",
"q  c #D19F68",
"w  c #C39D72",
"e  c #D3A26C",
"r  c #D9A86F",
"t  c #C9A071",
"y  c #D5A671",
"u  c #D6A874",
"i  c #D8AA75",
"p  c #D4A778",
"a  c #D5AB7B",
"s  c #DAAE7A",
"d  c #D7B07C",
"f  c #DCB17D",
"g  c #848484",
"h  c #8B8885",
"j  c #8C8C8B",
"k  c #969696",
"l  c #9B9691",
"z  c #9B9894",
"x  c #9A9A9A",
"c  c #A09282",
"v  c #A29D99",
"b  c #BAA489",
"n  c #A5A19D",
"m  c #A3A2A1",
"M  c #A9A6A3",
"N  c #ACA9A6",
"B  c #AEADAC",
"V  c #B2AEAB",
"C  c #B3B0AC",
"Z  c #AFB0B0",
"A  c #B6B5B4",
"S  c #B9B6B3",
"D  c #BBB8B5",
"F  c #BDBCBA",
"G  c #D4AF81",
"H  c #DDB382",
"J  c #DEB88F",
"K  c #D4B390",
"L  c #D8B997",
"P  c #C1BEBB",
"I  c #DCC4A7",
"U  c #D5C2A9",
"Y  c #C3C0BD",
"T  c #E1C5A3",
"R  c #E2CDB5",
"E  c #E3CFB8",
"W  c #E4D1BA",
"Q  c #C6C4C3",
"!  c #C9C6C4",
"~  c #CBC9C7",
"^  c #CECDCB",
"/  c #D0CECC",
"(  c #D2D0CE",
")  c #D4D3D3",
"_  c #D9D7D5",
"`  c #DAD8D7",
"'  c #DCDBDA",
"]  c #E5DDD3",
"[  c #E9DFD5",
"{  c #E0DFDE",
"}  c #EAE1D7",
"|  c #E1E0DF",
" . c #EBE2D8",
".. c #E3E3E2",
"X. c #E9E6E2",
"o. c #E9E8E7",
"O. c #ECECEB",
"+. c #F0F0EF",
"@. c #F3F3F3",
"#. c #F7F7F8",
"$. c #FDFDFE",
"%. c None",
/* pixels */
"%.%.%.%.%.%.%.%.%.%.%.%.%.F A A %.%.%.%.%.%.%.%.%.%.%.%.%.%.%.%.",
"%.%.%.%.%.%.%.%.%.%.%.x k x m Z A %.%.%.%.%.%.%.%.%.%.%.%.%.%.%.",
"%.%.%.%.%.%.%.%.%.%.%.x m Z A F A j %.%.%.%.%.%.%.%.%.%.%.%.%.%.",
"%.%.%.%.9 y p p p b m Z F ! Q F x g c L L H H H s %.%.%.%.%.%.%.",
"%.%.%.%.1 1 % : & l M S Q Q D M k h + O > t t a p %.%.%.%.%.%.%.",
"%.%.%.%.2 1 # @ . X o * = ; ; ; ; ; = * : 8 8 s a %.%.%.%.%.%.%.",
"%.%.%.%.3 4 3 7 7 7 7 e 9 e e y y p i s s s f f d %.%.%.%.%.%.%.",
"%.%.%.%.3 4 0 0 0 e e e e y i i p s s s f f f H d %.%.%.%.%.%.%.",
"%.%.%.%.3 7 0 0 q e e e y y u i i s s f f H H H d %.%.%.%.%.%.%.",
"%.%.%.%.3 7 0 0 q e L R R R R R E E W W W W T H G %.%.%.%.%.%.%.",
"%.%.%.%.3 0 0 0 e y [ $.$.$.$.$.$.$.$.$.$.$.O.I G %.%.%.%.%.%.%.",
"%.%.%.%.6 0 0 e e p  .$.$.$.$.$.$.$.$.$.$.#.@.X.U %.%.%.%.%.%.%.",
"%.%.%.%.6 0 q e e p  .$.$.$.$.$.$.$.$.$.$.#.@.#.O.%.%.%.%.%.%.%.",
"%.%.%.%.6 q e e e p  .$.$.$.$.$.$.$.$.$.$.#.+.$.$.O.%.%.%.%.%.%.",
"%.%.%.%.7 q e e r i  .$.$.$.$.$.$.$.$.$.$.$.O.O.@.O...%.%.%.%.%.",
"%.%.%.%.6 e e e i p  .$.$.$.$.$.$.$.$.$.$.$.#.@.O.O.O.' %.%.%.%.",
"%.%.%.%.7 e e u y s  .$.$.$.$.$.$.$.$.$.$.$.$.#.#.#.@...%.%.%.%.",
"%.%.%.%.7 e e e y p  .$.$.$.$.$.$.$._ P X.$.| P Y ~ o.O.%.%.%.%.",
"%.%.%.%.7 e e u i p } $.$.$.$.$.$.{ S N v @.O.l ! ( N ..%.%.%.%.",
"%.%.%.%.e e e y p a  .$.#._ / o.$.#.#.O.v +.O.v +.' n { %.%.%.%.",
"%.%.%.%.e e y y i p } #.P P ~ / $.$.$._ ! $./ l P N _ O.%.%.%.%.",
"%.%.%.%.9 e y y u p  .' v +.#.#.#.$.X./ @.#.V P { M ) O.%.%.%.%.",
"%.%.%.%.9 e e r p a  .F A $.#.#.$.o._ +.#.O.v | #.C P O.%.%.%.%.",
"%.%.%.%.9 e u u u a } ! M | ( +._ n V V ( Q l { / n | ..%.%.%.%.",
"%.%.%.%.9 e y p i s [ +.! ^ O.@.~ A A F ' P D Q ~ | #...%.%.%.%.",
"%.%.%.%.9 y r i i G ] #.#.#.#.@.#.#.#.#.#.#.#.#.#.#.#...%.%.%.%.",
"%.%.%.%.% , , < 8 w ` #.@.@.@.@.#.@.@.@.@.#.@.@.@.@.@.' %.%.%.%.",
"%.%.%.%.%.%.%.%.%.  ` @.@.+.@.@.@.@.+.@.@.@.@.@.@.@.@.' %.%.%.%.",
"%.%.%.%.%.%.%.%.%.%...@.@.@.@.+.+.@.@.+.+.@.@.+.+.@.+.' %.%.%.%.",
"%.%.%.%.%.%.%.%.%.%...#.+.+.@.@.@.+.+.@.@.+.+.@.@.+.@.' %.%.%.%.",
"%.%.%.%.%.%.%.%.%.%.Q ' _ _ _ _ ) ) ) ) ) ) ) ) ^ ( ^ A %.%.%.%.",
"%.%.%.%.%.%.%.%.%.%.%.%.%.%.%.%.%.%.%.%.%.%.%.%.%.%.%.%.%.%.%.%."
};
