/* XPM */
static char * dvdrip_queue_xpm[] = {
"24 25 94 2",
"  	c None",
". 	c #040505",
"+ 	c #090C0D",
"@ 	c #1E2628",
"# 	c #3D4D51",
"$ 	c #313E42",
"% 	c #121618",
"& 	c #050708",
"* 	c #010101",
"= 	c #181E20",
"- 	c #7FA2AA",
"; 	c #AFDDE9",
"> 	c #ACD9E4",
", 	c #46585D",
"' 	c #030404",
") 	c #050707",
"! 	c #040404",
"~ 	c #7A9AA3",
"{ 	c #A9DAE7",
"] 	c #A3D7E5",
"^ 	c #3E5358",
"/ 	c #000000",
"( 	c #020203",
"_ 	c #060708",
": 	c #2F3A3E",
"< 	c #97D3E3",
"[ 	c #96D3E2",
"} 	c #80B0BC",
"| 	c #0E1618",
"1 	c #020303",
"2 	c #010202",
"3 	c #485A5F",
"4 	c #ADDCE8",
"5 	c #9FD7E5",
"6 	c #98D4E2",
"7 	c #83CBDD",
"8 	c #8ACEDF",
"9 	c #95D3E2",
"0 	c #2D4044",
"a 	c #0F1415",
"b 	c #566D73",
"c 	c #8FD0E1",
"d 	c #B7E1EB",
"e 	c #A1D8E5",
"f 	c #6FC3D8",
"g 	c #ABDBE8",
"h 	c #344247",
"i 	c #0A0C0D",
"j 	c #121719",
"k 	c #53686E",
"l 	c #AADBE7",
"m 	c #91D1E1",
"n 	c #FFFFFF",
"o 	c #F8FCFD",
"p 	c #86CCDD",
"q 	c #AADCE8",
"r 	c #415256",
"s 	c #1B2225",
"t 	c #0C1010",
"u 	c #415257",
"v 	c #AADBE8",
"w 	c #7FC9DC",
"x 	c #B8E1EB",
"y 	c #B5E0EB",
"z 	c #3A4A4E",
"A 	c #2C383B",
"B 	c #A8DAE7",
"C 	c #96D3E3",
"D 	c #87CDDE",
"E 	c #98D4E3",
"F 	c #9ED7E4",
"G 	c #ACDCE9",
"H 	c #2E393C",
"I 	c #82A8B2",
"J 	c #9DD5E4",
"K 	c #99D3E3",
"L 	c #A2CDD9",
"M 	c #13191A",
"N 	c #020202",
"O 	c #364448",
"P 	c #A4D8E5",
"Q 	c #A9DBE8",
"R 	c #556B71",
"S 	c #141A1B",
"T 	c #030303",
"U 	c #394A4E",
"V 	c #A9D5E1",
"W 	c #6A868D",
"X 	c #121718",
"Y 	c #0D1011",
"Z 	c #2A3538",
"` 	c #344145",
" .	c #161C1E",
"..	c #0E1213",
"                                                ",
"                                                ",
"                                                ",
"                                                ",
"                                                ",
"                                                ",
"                . + @ # $ % & *                 ",
"              + = - ; ; ; > , ' )               ",
"            ) ! ~ ; ; ; ; { ] ^ / (             ",
"            _ : ; ; ; ; ; < [ } | 1             ",
"          2 / 3 ; ; 4 5 6 7 8 9 0 /             ",
"          a / b ; ; c d e f [ g h / i           ",
"          j / k ; l m n o p q ; r / s           ",
"          t / u ; v w x y c ; ; z /             ",
"          / / A B C D E F G ; ; H %             ",
"            ' ) I J K ; ; ; ; L M =             ",
"            N / O P Q ; ; ; ; R S               ",
"              T / U V ; ; ; W X                 ",
"                / ( Y Z `  ...                  ",
"                      / /                       ",
"                    / / / / / /                 ",
"                          / / / / /             ",
"                                                ",
"                                                ",
"                                                "};
