/* XPM */
static char *eagle[] = {
/* columns rows colors chars-per-pixel */
"32 32 255 2",
"   c #000000",
".  c #0B0202",
"X  c #140302",
"o  c #150A0A",
"O  c #190201",
"+  c #1B0D0D",
"@  c #260300",
"#  c #210E0D",
"$  c #2E0603",
"%  c #231313",
"&  c #2D1B1A",
"*  c #370702",
"=  c #360C09",
"-  c #380601",
";  c #3E0F0C",
":  c #391412",
">  c #430601",
",  c #470F0B",
"<  c #480B05",
"1  c #441512",
"2  c #4F1713",
"3  c #4F1915",
"4  c #530E09",
"5  c #590B04",
"6  c #5F120C",
"7  c #521915",
"8  c #561D19",
"9  c #5A201E",
"0  c #4B2625",
"q  c #4F2C2C",
"w  c #502726",
"e  c #532A29",
"r  c #5D2F2C",
"t  c #58302F",
"y  c #5C3635",
"u  c #5C3837",
"i  c #620800",
"p  c #691009",
"a  c #7A0C01",
"s  c #711007",
"d  c #70140B",
"f  c #65231E",
"g  c #622522",
"h  c #682723",
"j  c #682E2B",
"k  c #603230",
"l  c #673C3B",
"z  c #702E2A",
"x  c #7D2E28",
"c  c #78312D",
"v  c #723C3B",
"b  c #7F3E3C",
"n  c #694342",
"m  c #714342",
"M  c #706061",
"N  c #7BA2A2",
"B  c #800B00",
"V  c #861107",
"C  c #86150D",
"Z  c #891208",
"A  c #990D00",
"S  c #9E1308",
"D  c #87211C",
"F  c #88251E",
"G  c #90241C",
"H  c #802D28",
"J  c #87312C",
"K  c #8E342E",
"L  c #8C3B36",
"P  c #8B3E39",
"I  c #9C2720",
"U  c #982821",
"Y  c #97342D",
"T  c #9D332C",
"R  c #923A35",
"E  c #9A3A34",
"W  c #9C3E39",
"Q  c #A40F01",
"!  c #AB1508",
"~  c #A21D13",
"^  c #B01507",
"/  c #BD1000",
"(  c #BF1C0E",
")  c #BF2317",
"_  c #BF271B",
"`  c #A2332C",
"'  c #A73730",
"]  c #BF2626",
"[  c #B3362D",
"{  c #BC3026",
"}  c #B53F37",
"|  c #A0433D",
" . c #AD433D",
".. c #B3423A",
"X. c #834544",
"o. c #854E4D",
"O. c #934643",
"+. c #9D4641",
"@. c #935554",
"#. c #9C5D5C",
"$. c #9A6868",
"%. c #967171",
"&. c #9F7271",
"*. c #AD4641",
"=. c #AF4C47",
"-. c #AB4E49",
";. c #A15553",
":. c #AE5653",
">. c #B45753",
",. c #BC5751",
"<. c #B95F5B",
"1. c #B7605C",
"2. c #A66E6D",
"3. c #A86564",
"4. c #A96B6A",
"5. c #B16462",
"6. c #B56C6B",
"7. c #B37170",
"8. c #C61B0C",
"9. c #CF1706",
"0. c #CC1C0C",
"q. c #C42316",
"w. c #CA2811",
"e. c #DC2414",
"r. c #DD281A",
"t. c #C42E23",
"y. c #CE352B",
"u. c #C23E36",
"i. c #C93D34",
"p. c #D03425",
"a. c #D6372B",
"s. c #DF3B31",
"d. c #E11604",
"f. c #ED200E",
"g. c #E52A1B",
"h. c #EC2413",
"j. c #EF2B1B",
"k. c #E33113",
"l. c #F42412",
"z. c #F32817",
"x. c #F62C1C",
"c. c #FA2F1F",
"v. c #F23A1B",
"b. c #E33526",
"n. c #EB3121",
"m. c #EF3B2E",
"M. c #E53C30",
"N. c #EC3F33",
"B. c #F63323",
"V. c #F73728",
"C. c #F73A2C",
"Z. c #F93626",
"A. c #F93728",
"S. c #F83C2E",
"D. c #F63E32",
"F. c #F83E31",
"G. c #C04239",
"H. c #CE4036",
"J. c #D74137",
"K. c #D0453B",
"L. c #D6483C",
"P. c #DD4137",
"I. c #D8493D",
"U. c #E24B20",
"Y. c #E64236",
"T. c #E54B3F",
"R. c #ED4035",
"E. c #EF4438",
"W. c #EC4A3E",
"Q. c #FF422D",
"!. c #F74236",
"~. c #F54438",
"^. c #F44A3E",
"/. c #F84135",
"(. c #F84639",
"). c #F9493D",
"_. c #FF5B27",
"`. c #C24A43",
"'. c #CB4C44",
"]. c #C6514B",
"[. c #CA534C",
"{. c #CB5954",
"}. c #D34B42",
"|. c #DB4C43",
" X c #D7554B",
".X c #DB5046",
"XX c #D05954",
"oX c #D5635D",
"OX c #C36360",
"+X c #C46965",
"@X c #C36E6C",
"#X c #CF6663",
"$X c #CC6D6A",
"%X c #C17877",
"&X c #CF7875",
"*X c #DC6C68",
"=X c #D5716E",
"-X c #DE736E",
";X c #D57674",
":X c #D37E7C",
">X c #DD7C79",
",X c #E34E45",
"<X c #E15248",
"1X c #EE574D",
"2X c #E65951",
"3X c #ED5E57",
"4X c #F34F44",
"5X c #F94D42",
"6X c #F25146",
"7X c #F3554B",
"8X c #F95146",
"9X c #F9554B",
"0X c #FA584F",
"qX c #F75B53",
"wX c #FA5C53",
"eX c #FA5F58",
"rX c #EB605A",
"tX c #F36058",
"yX c #FF6357",
"uX c #FA635C",
"iX c #E76761",
"pX c #E46C66",
"aX c #E96760",
"sX c #E96C68",
"dX c #E4726E",
"fX c #E37671",
"gX c #E57875",
"hX c #EC7E7A",
"jX c #F06660",
"kX c #F26B65",
"lX c #FB6760",
"zX c #FB6A64",
"xX c #FB6E68",
"cX c #FB726C",
"vX c #F47671",
"bX c #F37A76",
"nX c #F67E7A",
"mX c #FB7671",
"MX c #FD7A76",
"NX c #FC7C78",
"BX c #FF922A",
"VX c #E7817E",
"CX c #EB817E",
"ZX c #F7807C",
"AX c #CE8282",
"SX c #E58683",
"DX c #E18887",
"FX c #EC8583",
"GX c #E88885",
"HX c #FF9C89",
"JX c #FF9592",
"KX c #FFCFB6",
"LX c #FFDFE0",
"PX c gray100",
"IX c None",
/* pixels */
"IXIXIXIXIXIXIXIXIXIXIXIXIXIXIXIXIX&.4.IXIXIX%.%.IXIXIXIXIXIXIXIX",
"IXIXIXIXIXIXIXIXIXIXIXIXIXIXIXIXIX:Xl IXLXAX#.+ IXIXIXIXIXIXIXIX",
"IXIXIXIXIXIXIXIXIXIXIXIXIXIXIXIXSX@Xt PXDX3.u 7.n IXIXIXIXIXIXIX",
"IXIXIXIXIXIXIXIXIXIXIXIXIXIXIXIXCX;.y SX5.o.AX@.& IXIXIXIXIXIXIX",
"IXIXIXIXIXIXIXIXIXIXIXIXIXIXIXCXgX#.CX$X#.FX5.e IXIXIXIXIXIXIXIX",
"IXIXIXIXIXIXIXIXIXIXIXIXIXIXIXhXbXdXnX=XhX+Xe %X6.m IXIXIXIXIXIX",
"IXIXIXIXIXIXIXIXIXIXIXIXIXIXdXnXmXNXNXbXOXm gX;X@.% IXIXIXIXIXIX",
"IXIXIXIXIXIXIXIXIXIXIXIXIX+XvXmXcXmXMX*X<.gX$XX.%   IXIXIXIXIXIX",
"IXIXIXIXIXIXIXIXIXIXIXIX  dXcXcXcXcXmXvX*X>.t + IXIXIXIXIXIXIXIX",
"IXIXIXIXIXIXIXIXIXIXP +.-.rXzXzXxXxXcXcX*X#XdX*X<.k IXIXIXIXIXIX",
"IXIXIXIXIXIXIXIXz ]. .| [.zXuXzXzXxXxXcXcXsX>.X.0 # IXIXIXIXIXIX",
"IXIXIXIXIXIXIXHXR  .`.[.tXuXuXuXlXlXzXzXiX,.O.e IXIXIXIXIXIXIXIX",
"IXIXIXIXIXIXIX1X....'.qXwXwXuXuXuXuXlXzXzXkXXXP IXIXIXIXIXIXIXIX",
"IXIXIXIXIXIXIXI.} ,X9X0XwXqXwXwXuXuXuXlXzXjX=.j IXIXIXIXIXIXIXIX",
"IXIXIXIXIXIXI.,XK.8X8X9X9X0X0XwXqXeXuXuXuXrXL   IXIXIXIXIXIXIXIX",
"IXIXIXIXIXIXW.^.).8X8X8X9X9X9X0XwXqXqXeXuX3XR   IXIXIXIXIXIXIXIX",
"IXIXIXIXIXIXE.).).).5X5X8X8X8X0X9XwXwXwXeX<XW . IXIXIXIXIXIXIXIX",
"IXIXIXIXIXIXs.R.~.~.).).^.5X8X8X9X9X9X9XqX`.h   IXIXIXIXIXIXIXIX",
"IXIXIXIXIXIXD y.M.F.(.).5X5X^.5X8X8X9X9X<XY + IXIXIXIXIXIXIXIXIX",
"IXIXIXIXIXIXIX  a.F.F./.~.(.).).5X5X4X,XY : oXP ].E IXIXIXIXIXIX",
"IXIXIXIXIXIXb.V.F.F.F.F././.(.).^.i.` ` f ...X}.G.e IXIXIXIXIXIX",
"IXIXIXIXIXn.Z.Z.Z.Z.V.F.F.F./.~.Y.[ i.,X4X8X6X7X}.J x IXIXIXIXIX",
"IXIXIXIXg.x.c.B.B.V.Z.V.S.S.D.D.!.~.).).).^.8X8X8XI.H IXIXIXIXIX",
"IXIXIXIXU.v.g.r.g.x.B.V.V.V.S.D.F.D.N.R.R.P.J.H.u.' 8 IXIXIXIXIX",
"IXIXIXIXk.w.C 4 ~ g.x.B.Z.B.C.C.S.C.{ U F 1 2 7 7 1 8   IXIXIXIX",
"IXIXIXl.8.C   IX  q.j.x.B.B.B.B.b.t.F ;           IXIXIXIXIXIXIX",
"IXIXIXIX5 *       e.z.x.x.x.B._ , = X .           IXIXIXIXIXIXIX",
"IXIXIXIXIXIX      < h.l.z.e.) 6                   IXIXIXIXIXIXIX",
"IXIXIXIXIX    - a ! d.l.e.p X .                       IXIXIXIXIX",
"IXIXIXIX    O Q d.9.( V s X                           IXIXIXIXIX",
"IXIXIXIX    a A a a > X                               IXIXIXIXIX",
"IXIXIXIXIX/ @ @ . X O       IXIXIXIXIXIXIXIXIXIXIXIXIXIXIXIXIXIX"
};
