/* XPM */
static char *jeex[] = {
/* columns rows colors chars-per-pixel */
"32 32 97 2",
"   c #020000",
".  c #030000",
"X  c #040000",
"o  c #050000",
"O  c #070000",
"+  c #080000",
"@  c #090000",
"#  c #0B0000",
"$  c #0C0000",
"%  c #0D0000",
"&  c #0F0000",
"*  c #100000",
"=  c #110000",
"-  c #120000",
";  c #130000",
":  c #140000",
">  c #150000",
",  c #160000",
"<  c #170000",
"1  c #180000",
"2  c #190000",
"3  c #1A0000",
"4  c #1B0000",
"5  c #1C0000",
"6  c #1D0000",
"7  c #1E0000",
"8  c #1F0000",
"9  c #200000",
"0  c #220000",
"q  c #230000",
"w  c #240000",
"e  c #250000",
"r  c #260000",
"t  c #270000",
"y  c #280000",
"u  c #290000",
"i  c #2B0000",
"p  c #2C0000",
"a  c #2E0000",
"s  c #2F0000",
"d  c #300000",
"f  c #310000",
"g  c #320000",
"h  c #340000",
"j  c #350000",
"k  c #370000",
"l  c #380000",
"z  c #3A0000",
"x  c #3B0000",
"c  c #3C0000",
"v  c #3D0000",
"b  c #3E0000",
"n  c #3F0000",
"m  c #410000",
"M  c #420000",
"N  c #430000",
"B  c #480000",
"V  c #4C0000",
"C  c #4D0000",
"Z  c #4E0000",
"A  c #500000",
"S  c #530000",
"D  c #580000",
"F  c #5A0000",
"G  c #5B0000",
"H  c #5D0000",
"J  c #600000",
"K  c #610000",
"L  c #620000",
"P  c #640000",
"I  c #650000",
"U  c #660000",
"Y  c #690000",
"T  c #6A0000",
"R  c #6B0000",
"E  c #6C0000",
"W  c #6D0000",
"Q  c #6E0000",
"!  c #6F0000",
"~  c #700000",
"^  c #710000",
"/  c #720000",
"(  c #740000",
")  c #750000",
"_  c #760000",
"`  c #770000",
"'  c #780000",
"]  c #790000",
"[  c #7B0000",
"{  c #7C0000",
"}  c #7D0000",
"|  c #7F0000",
" . c #800000",
".. c #820000",
"X. c #830000",
"o. c #840000",
"O. c None",
/* pixels */
"O.O.O.O.O.O.O.O.O.O.O.O.O.O.O.O.O.O.O.O.O.O.O.O.O.O.O.O.O.O.O.O.",
"O.O.O.O.O.O.O.O.O.O.O.O.O.O.O.O.O.O.O.O.O.O.O.O.O.O.O.O.O.O.O.O.",
"O.O.O.O.O.O.O.O.O.O.O.O.O.O.O.O.O.O.O.O.O.O.O.O.O.O.O.O.O.O.O.O.",
"O.O.O.O.O.O.O.O.O.O.O.O.O.O.O.O.O.O.4 # 0 O.O.O.O.O.O.O.O.O.O.O.",
"O.O.O.O.O.O.O.O.O.O.X - O.O.O.O.O.O.,   7 O.O.O.O.O.O.O.O.O.O.O.",
"O.O.O.O.O.O.O.O.O.k   # O.O.O.O.O.O.i X 7 O.O.O.O.O.O.O.O.O.O.O.",
"O.O.O.O.O.O.O.O.O.x X X G R ` ` ` ` W C N O.O.O.O.O.O.O.O.O.O.O.",
"O.O.O.O.O.O.O.O.O.v   X O.O.O.O.O.O.^  . .] O.O.O.O.O.O.O.O.O.O.",
"O.O.O.O.O.O.O.O.I m   X O.O.O.O.O.O.r G o.o. .^ O.O.O.O.O.O.O.O.",
"O.O.O.O.O.O.O.L ^ d   X O.O.O.O.N d % % R o.o.o.^ O.O.O.O.O.O.O.",
"O.O.O.O.O.O.H  .| A m C G 4 X         X x o.o.o.o.O.O.O.O.O.O.O.",
"O.O.O.O.O.r v o. .o. .o.o.` 0           7  .o.o.o.` O.O.O.O.O.O.",
"O.O.O.O.O.r v o.o.o.o.o.o.o.L % # # X   4  .o.o.o.] O.O.O.O.O.O.",
"O.O.O.O.O.i d | o.o.o.o.o.o.^ O.O.O.,   7  .o.o.o.| O.O.O.O.O.O.",
"O.O.O.O.O.O.O.O.] o.o.o. .^ O.O.O.O.-   7  .o.o.o.| O.O.O.O.O.O.",
"O.O.O.O.O.O.O.O.O.H B C L O.O.O.O.O.,   7 o.o.o.o.` O.O.O.O.O.O.",
"O.O.O.O.O.O.O.O.O.k   X O.O.O.O.O.O.,   4 o.o. .o.W O.O.O.O.O.O.",
"O.O.O.O.O.O.O.O.O.d     O.O.O.O.O.O.-   - I R W ^ O.O.O.O.O.O.O.",
"O.O.O.O.O.O.O.O.O.r     i r 7 , , -           X 7 O.O.O.O.O.O.O.",
"O.O.O.O.O.x , - X                               , O.O.O.O.O.O.O.",
"O.O.O.O.O.r                                 # % r O.O.O.O.O.O.O.",
"O.O.O.O.O.0               - 4 0 i m 7   - ^ O.O.O.O.O.O.O.O.O.O.",
"O.O.O.O.O.a 7 r k 7     O.O.O.O.L | a   4 O.O.O.O.O.O.O.O.O.O.O.",
"O.O.O.O.O.O.O.O.O.d   X O.O.O.I |  .a   4 O.O.O.O.O.O.O.O.O.O.O.",
"O.O.O.O.O.O.O.O.O.d   X O.O.W |  .] r   7 O.O.O.O.O.O.O.O.O.O.O.",
"O.O.O.O.O.O.O.O.O.x   X S `  .| W O.4   7 O.O.O.O.O.O.O.O.O.O.O.",
"O.O.O.O.O.O.O.O.O.m , C | ] R O.O.O.4   7 O.O.O.O.O.O.O.O.O.O.O.",
"O.O.O.O.O.O.O.O.O.L ^ ` W O.O.O.O.O.k a v O.O.O.O.O.O.O.O.O.O.O.",
"O.O.O.O.O.O.O.O.^ ] I k O.O.O.O.O.O.O.O.O.O.O.O.O.O.O.O.O.O.O.O.",
"O.O.O.O.O.O.R R O.O.O.O.O.O.O.O.O.O.O.O.O.O.O.O.O.O.O.O.O.O.O.O.",
"O.O.O.O.O.O.O.O.O.O.O.O.O.O.O.O.O.O.O.O.O.O.O.O.O.O.O.O.O.O.O.O.",
"O.O.O.O.O.O.O.O.O.O.O.O.O.O.O.O.O.O.O.O.O.O.O.O.O.O.O.O.O.O.O.O."
};
