/* XPM */
static char * kodos_icon_xpm[] = {
"24 24 131 2",
"  	c None",
". 	c #1A2E0C",
"+ 	c #1C310D",
"@ 	c #15250A",
"# 	c #152409",
"$ 	c #4A8021",
"% 	c #569527",
"& 	c #233D10",
"* 	c #3B661B",
"= 	c #467920",
"- 	c #142309",
"; 	c #39631A",
"> 	c #477C20",
", 	c #376019",
"' 	c #497E21",
") 	c #355D18",
"! 	c #4A8122",
"~ 	c #1D320D",
"{ 	c #325717",
"] 	c #4B8322",
"^ 	c #292420",
"/ 	c #528E25",
"( 	c #4D8523",
"_ 	c #16260A",
": 	c #695C53",
"< 	c #D9BFAC",
"[ 	c #406F1D",
"} 	c #132209",
"| 	c #FFDFC9",
"1 	c #3B342F",
"2 	c #386119",
"3 	c #549126",
"4 	c #3E6B1C",
"5 	c #6C5F55",
"6 	c #20370E",
"7 	c #192C0B",
"8 	c #539026",
"9 	c #3C671B",
"0 	c #E5C8B5",
"a 	c #534841",
"b 	c #1E350E",
"c 	c #549226",
"d 	c #375F19",
"e 	c #C4AF9A",
"f 	c #D6BBAA",
"g 	c #20370F",
"h 	c #559327",
"i 	c #345A18",
"j 	c #3A5521",
"k 	c #BBA493",
"l 	c #716359",
"m 	c #223A0F",
"n 	c #559427",
"o 	c #325616",
"p 	c #558B2B",
"q 	c #3A4428",
"r 	c #E5C8B4",
"s 	c #FDDDC7",
"t 	c #332D28",
"u 	c #1B2F0C",
"v 	c #1A2D0C",
"w 	c #101C07",
"x 	c #53882A",
"y 	c #4D483B",
"z 	c #FADAC5",
"A 	c #F3D4BF",
"B 	c #5D524A",
"C 	c #4B7B26",
"D 	c #575242",
"E 	c #C4AB9A",
"F 	c #5A4F47",
"G 	c #61554D",
"H 	c #594E46",
"I 	c #685B52",
"J 	c #726359",
"K 	c #948174",
"L 	c #D2B8A6",
"M 	c #D8BDAA",
"N 	c #B8A191",
"O 	c #5B4F47",
"P 	c #446F22",
"Q 	c #3E3F2E",
"R 	c #F4D6C1",
"S 	c #F9DAC4",
"T 	c #F7D8C3",
"U 	c #665951",
"V 	c #2D4A17",
"W 	c #528629",
"X 	c #294017",
"Y 	c #5F6544",
"Z 	c #A2937E",
"` 	c #AD9A87",
" .	c #B19D8A",
"..	c #A49280",
"+.	c #6D6653",
"@.	c #55593D",
"#.	c #364722",
"$.	c #31491B",
"%.	c #30401E",
"&.	c #67624E",
"*.	c #FADBC5",
"=.	c #5D5149",
"-.	c #315119",
";.	c #558A2B",
">.	c #518429",
",.	c #487625",
"'.	c #477524",
").	c #477324",
"!.	c #477424",
"~.	c #3E6620",
"{.	c #457123",
"].	c #497825",
"^.	c #293918",
"/.	c #938771",
"(.	c #16240B",
"_.	c #304E18",
":.	c #416B21",
"<.	c #14210A",
"[.	c #192A0D",
"}.	c #243C12",
"|.	c #253D13",
"1.	c #313C21",
"2.	c #403932",
"3.	c #16230B",
"4.	c #18280C",
"5.	c #18270C",
"6.	c #17260C",
"7.	c #1A2B0D",
"8.	c #14200A",
"9.	c #111B09",
"0.	c #0A0B07",
"              . + + @           + + + #         ",
"              $ % % &         * % % = -         ",
"              $ % % &       ; % % > -           ",
"              $ % % &     , % % ' #             ",
"              $ % % &   ) % % ! #               ",
"              $ % % ~ { % % ] @                 ",
"  ^           $ % % / % % ( _                   ",
"  :           $ % % % % % -                     ",
"  <           $ % % % % % [ }                   ",
"  | 1         $ % % 2 3 % % 4                   ",
"  | 5         $ % % 6 7 8 % % 9                 ",
"  | 0         $ % % &   ~ 3 % % ;               ",
"  | | a       $ % % &     b c % % d             ",
"  e | f       $ % % &       g h % % i           ",
"  j k | l     $ % % &         m n % % o         ",
"  p q r s t   u ~ ~ @           v ~ ~ ~ w       ",
"  p x y z A B                                   ",
"  p p C D | | E F G H I J K L M N O             ",
"    p p P Q R | | | | | | | | S | T U           ",
"    V p p W X Y Z `  ...+.@.#.$.%.&.*.=.        ",
"      -.;.p p >.,.'.).!.p p p ~.{.].^./.l       ",
"        (._.C p p p p x :.V <.    [.}.|.1.2.    ",
"              3.4.5.6.7.                8.9.0.  ",
"                                                "};
