<?xml version="1.0" encoding="UTF-8" standalone="no"?>
<!-- Created with Inkscape (http://www.inkscape.org/) -->
<svg
   xmlns:dc="http://purl.org/dc/elements/1.1/"
   xmlns:cc="http://creativecommons.org/ns#"
   xmlns:rdf="http://www.w3.org/1999/02/22-rdf-syntax-ns#"
   xmlns:svg="http://www.w3.org/2000/svg"
   xmlns="http://www.w3.org/2000/svg"
   xmlns:sodipodi="http://sodipodi.sourceforge.net/DTD/sodipodi-0.dtd"
   xmlns:inkscape="http://www.inkscape.org/namespaces/inkscape"
   version="1.0"
   width="80"
   height="80"
   id="svg2"
   sodipodi:version="0.32"
   inkscape:version="0.46"
   sodipodi:docname="touchpad.svg"
   inkscape:output_extension="org.inkscape.output.svg.inkscape">
  <metadata
     id="metadata14">
    <rdf:RDF>
      <cc:Work
         rdf:about="">
        <dc:format>image/svg+xml</dc:format>
        <dc:type
           rdf:resource="http://purl.org/dc/dcmitype/StillImage" />
        <dc:creator>
          <cc:Agent>
            <dc:title>Stefan Kombrink</dc:title>
          </cc:Agent>
        </dc:creator>
        <dc:description>for touchfreeze</dc:description>
        <cc:license
           rdf:resource="http://creativecommons.org/licenses/by/3.0/" />
      </cc:Work>
      <cc:License
         rdf:about="http://creativecommons.org/licenses/by/3.0/">
        <cc:permits
           rdf:resource="http://creativecommons.org/ns#Reproduction" />
        <cc:permits
           rdf:resource="http://creativecommons.org/ns#Distribution" />
        <cc:requires
           rdf:resource="http://creativecommons.org/ns#Notice" />
        <cc:requires
           rdf:resource="http://creativecommons.org/ns#Attribution" />
        <cc:permits
           rdf:resource="http://creativecommons.org/ns#DerivativeWorks" />
      </cc:License>
    </rdf:RDF>
  </metadata>
  <sodipodi:namedview
     inkscape:window-height="667"
     inkscape:window-width="645"
     inkscape:pageshadow="2"
     inkscape:pageopacity="0.0"
     guidetolerance="10.0"
     gridtolerance="10.0"
     objecttolerance="10.0"
     borderopacity="1.0"
     bordercolor="#666666"
     pagecolor="#ffffff"
     id="base"
     showgrid="false"
     inkscape:zoom="5.825"
     inkscape:cx="40.429185"
     inkscape:cy="40"
     inkscape:window-x="603"
     inkscape:window-y="0"
     inkscape:current-layer="svg2" />
  <defs
     id="defs4">
    <inkscape:perspective
       sodipodi:type="inkscape:persp3d"
       inkscape:vp_x="0 : 40 : 1"
       inkscape:vp_y="0 : 1000 : 0"
       inkscape:vp_z="80 : 40 : 1"
       inkscape:persp3d-origin="40 : 26.666667 : 1"
       id="perspective16" />
  </defs>
  <g
     transform="translate(-317.14285,-486.82648)"
     id="layer1">
    <g
       id="g2466" />
    <path
       d="M 341.64415,558.7247 C 334.23231,557.25551 329.10273,555.57073 322.76959,552.52548 L 318.89503,550.66242 L 319.32825,522.49004 C 319.65542,501.21426 320.08309,493.93014 321.07526,492.73465 C 322.22822,491.34541 326.70458,491.15164 357.64415,491.15164 C 384.64845,491.15164 393.1332,491.44418 393.89887,492.40164 C 394.49286,493.14441 395.04978,505.41936 395.27132,522.65164 L 395.64415,551.65164 L 391.14415,553.86688 C 383.77874,557.49269 375.63171,559.08572 361.75461,559.61358 C 352.73894,559.95651 346.45784,559.67889 341.64415,558.7247 z"
       id="path2480"
       style="fill:#ababab" />
    <path
       d="M 336.64415,556.19723 C 327.014,553.65999 321.23418,551.21558 320.29153,549.28139 C 319.36705,547.38447 320.5798,494.8738 321.58568,493.24625 C 322.62261,491.56845 393.05772,491.72035 393.63933,493.40164 C 394.07743,494.66809 394.50899,502.93869 395.73958,533.65164 L 396.42073,550.65164 L 389.53244,553.30813 C 379.66667,557.11289 372.60501,558.15906 357.21049,558.09658 C 347.36993,558.05664 341.72171,557.53501 336.64415,556.19723 z M 355.34715,555.6153 C 355.64214,555.32032 355.31051,553.40782 354.6102,551.3653 L 353.33691,547.65164 L 339.99053,547.08697 C 332.65002,546.77641 326.50574,546.61482 326.33657,546.72788 C 326.16741,546.84095 327.49515,547.97745 329.28712,549.25344 C 334.89838,553.24901 353.23665,557.72581 355.34715,555.6153 z M 373.49981,554.56784 C 380.13528,552.85743 389.14415,548.4281 389.14415,546.87608 C 389.14415,546.34934 388.13165,546.18972 386.89415,546.52135 C 385.65665,546.85299 379.6028,547.13048 373.44115,547.13798 L 362.23816,547.15164 L 361.19673,550.90164 C 360.62395,552.96414 360.15279,554.98914 360.14973,555.40164 C 360.14032,556.66669 367.02564,556.23666 373.49981,554.56784 z"
       id="path2478"
       style="fill:#989898" />
    <path
       d="M 335.06457,555.25525 C 331.44581,554.27842 326.72081,552.618 324.56457,551.56542 L 320.64415,549.65164 L 320.93529,522.20453 C 321.12393,504.42046 321.60711,494.29873 322.30773,493.45453 C 323.94199,491.48538 391.40573,491.55697 393.04286,493.5296 C 393.78575,494.42472 394.23875,500.74815 394.33568,511.57588 C 394.41774,520.74345 394.85822,528.47493 395.31452,528.75693 C 396.73923,529.63745 396.33762,550.80378 394.89415,550.91214 C 394.20665,550.96375 390.64168,552.14361 386.972,553.53404 C 383.30232,554.92447 377.90232,556.30808 374.972,556.60872 L 369.64415,557.15535 L 376.64415,554.82852 C 384.83265,552.10663 389.26478,549.91615 391.12929,547.66954 C 392.2563,546.31158 392.20766,545.50802 390.82264,542.60361 L 389.17651,539.15164 L 375.20564,539.15164 L 361.23478,539.15164 L 360.66552,542.40164 C 360.35244,544.18914 359.69549,547.89432 359.20565,550.63537 C 358.71581,553.37643 358.52814,555.96393 358.78861,556.38537 C 359.04907,556.80682 358.53407,557.15164 357.64415,557.15164 C 356.75423,557.15164 356.27203,556.75375 356.57259,556.26743 C 357.05094,555.49344 356.07619,548.1531 354.5985,541.40164 C 354.11681,539.20083 353.80442,539.15164 340.31031,539.15164 L 326.51457,539.15164 L 324.81279,542.72032 C 323.87681,544.68309 323.374,546.71452 323.69543,547.23461 C 324.6649,548.80325 332.21497,552.35723 339.64415,554.74201 C 347.95949,557.41126 344.49153,557.79991 335.06457,555.25525 z"
       id="path2476"
       style="fill:#888888" />
    <path
       d="M 394.99432,541.90164 C 394.90953,538.93056 394.66177,537.86485 394.42356,539.44655 L 394.00264,542.24145 L 392.00081,539.69655 C 390.01126,537.16724 389.9048,537.15164 374.63059,537.15164 C 364.98921,537.15164 359.02069,537.54238 358.61414,538.2002 C 358.16424,538.92814 357.56996,538.91999 356.67053,538.17353 C 355.83716,537.4819 349.93512,537.19701 340.12691,537.37497 L 324.87886,537.65164 L 323.0115,541.13604 L 321.14415,544.62044 L 321.15126,525.63604 C 321.15517,515.19462 321.44524,503.61414 321.79586,499.90164 L 322.43336,493.15164 L 357.78876,493.15164 L 393.14415,493.15164 L 393.35582,497.40164 C 393.60917,502.48866 393.73454,507.21664 393.9856,521.15164 C 394.11538,528.3548 394.47914,531.18066 395.14415,530.15164 C 395.80873,529.12328 396.11834,531.56005 396.12884,537.90164 C 396.14502,547.6777 395.24929,550.83579 394.99432,541.90164 z"
       id="path2474"
       style="fill:#6d6d6d" />
    <path
       d="M 395.45402,535.65164 C 395.44841,532.35164 395.6305,530.88108 395.85868,532.38373 C 396.08685,533.88638 396.09144,536.58638 395.86888,538.38373 C 395.64632,540.18108 395.45963,538.95164 395.45402,535.65164 z M 323.17933,533.21738 C 322.04721,531.10198 321.75889,506.24159 322.78007,498.79121 L 323.416,494.15164 L 357.66485,494.15164 L 391.9137,494.15164 L 392.5112,499.40164 C 393.60339,508.99842 392.56883,533.26867 391.0259,534.24589 C 390.26594,534.72721 374.92248,535.1279 356.92933,535.13633 C 325.60025,535.15099 324.17067,535.06971 323.17933,533.21738 z M 385.14415,502.65164 C 385.14415,500.80881 384.61235,500.15164 383.1211,500.15164 C 381.19302,500.15164 381.17495,500.26901 382.73611,502.65164 C 383.63704,504.02664 384.54742,505.15164 384.75916,505.15164 C 384.9709,505.15164 385.14415,504.02664 385.14415,502.65164 z"
       id="path2472"
       style="fill:#565656" />
    <path
       d="M 395.30205,534.15164 C 395.30205,532.77664 395.52902,532.21414 395.80643,532.90164 C 396.08384,533.58914 396.08384,534.71414 395.80643,535.40164 C 395.52902,536.08914 395.30205,535.52664 395.30205,534.15164 z M 324.89415,533.57212 C 323.78326,532.45558 323.98342,499.70459 325.1194,496.71674 L 326.09465,494.15164 L 357.64415,494.15164 L 389.19365,494.15164 L 390.1689,496.71674 C 391.60986,500.50674 391.45113,533.15164 389.99175,533.15164 C 389.35793,533.15164 374.62043,533.41585 357.24175,533.73878 C 339.86307,534.06171 325.30665,533.98671 324.89415,533.57212 z M 387.37387,518.65164 C 387.22521,513.70164 386.85533,507.28914 386.55191,504.40164 L 386.00024,499.15164 L 372.72307,499.15164 C 365.42063,499.15164 356.02151,499.44111 351.83614,499.7949 L 344.22638,500.43816 L 347.94302,504.66048 C 349.98717,506.98276 353.43873,512.12834 355.61316,516.0951 C 357.78758,520.06186 360.44543,523.7777 361.51949,524.35252 C 364.54014,525.96912 377.08143,528.03566 382.64415,527.83342 L 387.64415,527.65164 L 387.37387,518.65164 z"
       id="path2470"
       style="fill:#484848" />
    <path
       d="M 325.14415,514.85164 C 325.14415,502.72942 325.5033,497.19249 326.34415,496.35164 C 328.05886,494.63693 387.22944,494.63693 388.94415,496.35164 C 389.76384,497.17133 390.10609,501.52905 390.02406,510.10164 C 389.89447,523.64404 388.96101,522.40523 387.42445,506.65164 L 386.64415,498.65164 L 374.14415,498.39839 C 367.26915,498.2591 354.44415,498.4841 345.64415,498.89839 L 329.64415,499.65164 L 329.35751,509.43736 L 329.07086,519.22307 L 332.39391,520.61153 C 341.19095,524.28717 370.15972,529.94988 382.50248,530.40658 C 386.14513,530.54136 389.12968,530.98914 389.13481,531.40164 C 389.13995,531.81414 374.74415,532.15164 357.14415,532.15164 L 325.14415,532.15164 L 325.14415,514.85164 z"
       id="path2468"
       style="fill:#3a3a3a" />
  </g>
</svg>
