/* XPM */
static char *videoporama[] = {
/* columns rows colors chars-per-pixel */
"30 31 256 2",
"   c #4D3F3F",
".  c #17570C",
"X  c #19670D",
"o  c #166E0D",
"O  c #1B7E0E",
"+  c #1C7A15",
"@  c #375821",
"#  c #1B7A2E",
"$  c #247C25",
"%  c #207229",
"&  c #2D7B20",
"*  c #2E6E3A",
"=  c #207F32",
"-  c #287839",
";  c #3E7234",
":  c #2D4B43",
">  c #3A5A4C",
",  c #2D4D56",
"<  c #1A7C47",
"1  c #1A7558",
"2  c #2D6F45",
"3  c #32694C",
"4  c #386A51",
"5  c #3C6758",
"6  c #3E685E",
"7  c #367252",
"8  c #1A7D64",
"9  c #11727F",
"0  c #2F746E",
"q  c #4F4343",
"w  c #524444",
"e  c #544C4C",
"r  c #594D4D",
"t  c #54524B",
"y  c #4D4E53",
"u  c #564F51",
"i  c #4D5C5C",
"p  c #555252",
"a  c #5A5555",
"s  c #575759",
"d  c #5A575A",
"f  c #555A5C",
"g  c #5A595B",
"h  c #5C5C53",
"j  c #615656",
"k  c #655B5B",
"l  c #695F5F",
"z  c #4D6249",
"x  c #4C6945",
"c  c #58655C",
"v  c #7C7749",
"b  c #6C675A",
"n  c #767857",
"m  c #4D5460",
"M  c #5C5F62",
"N  c #535D67",
"B  c #446460",
"V  c #4B6160",
"C  c #536163",
"Z  c #54616F",
"A  c #58646D",
"S  c #5E6164",
"D  c #4A6573",
"F  c #516875",
"G  c #596774",
"H  c #5C727E",
"J  c #656162",
"K  c #6C6363",
"L  c #6E6768",
"P  c #6F6868",
"I  c #726B6B",
"U  c #727060",
"Y  c #7A7474",
"T  c #7E7979",
"R  c #BF4A32",
"E  c #B75930",
"W  c #BA5432",
"Q  c #AA6336",
"!  c #B26832",
"~  c #AB743B",
"^  c #D44C37",
"/  c #C35332",
"(  c #D0593A",
")  c #CD653D",
"_  c #8C7C4A",
"`  c #B56E53",
"'  c #B07357",
"]  c #997467",
"[  c #837E7E",
"{  c #A17C64",
"}  c #C96340",
"|  c #1F8111",
" . c #1D8E11",
".. c #238818",
"X. c #2A8C1C",
"o. c #248119",
"O. c #219312",
"+. c #229B13",
"@. c #27921F",
"#. c #2A921D",
"$. c #23A213",
"%. c #24AA14",
"&. c #25B615",
"*. c #26BB16",
"=. c #24B01D",
"-. c #1E843C",
";. c #23852A",
":. c #2E8D3C",
">. c #279D31",
",. c #3D9835",
"<. c #1FAF37",
"1. c #1EA437",
"2. c #21AF27",
"3. c #24BF20",
"4. c #21B82A",
"5. c #30B42B",
"6. c #3EAF3D",
"7. c #29B732",
"8. c #27C317",
"9. c #27C219",
"0. c #2ACD1A",
"q. c #28D11A",
"w. c #239E55",
"e. c #23A84A",
"r. c #16966E",
"t. c #149475",
"y. c #688956",
"u. c #6F8977",
"i. c #91843D",
"p. c #9E903D",
"a. c #B49D2F",
"s. c #B29134",
"d. c #C7BD3A",
"f. c #CCC33A",
"g. c #80804F",
"h. c #888548",
"j. c #958949",
"k. c #93924C",
"l. c #8B8951",
"z. c #979850",
"x. c #A99242",
"c. c #A98B5A",
"v. c #AFAD48",
"b. c #ADA64C",
"n. c #BBB443",
"m. c #ACA959",
"M. c #B6B358",
"N. c #B4B254",
"B. c #818C61",
"V. c #8A887B",
"C. c #98AD67",
"Z. c #9FA96E",
"A. c #A7A067",
"S. c #AFAF67",
"D. c #B7B76E",
"F. c #BCB963",
"G. c #A2A571",
"H. c #ACB278",
"J. c #116983",
"K. c #187484",
"L. c #266D8C",
"P. c #3E7197",
"I. c #0E61A4",
"U. c #0D7FA6",
"Y. c #0A77AA",
"T. c #1377A6",
"R. c #127CA4",
"E. c #256BAB",
"W. c #2D6CBB",
"Q. c #277EB5",
"!. c #426280",
"~. c #4D7489",
"^. c #537180",
"/. c #587082",
"(. c #486C96",
"). c #4A7890",
"_. c #426EA1",
"`. c #0A67C9",
"'. c #186FC6",
"]. c #0A77C3",
"[. c #1573CF",
"{. c #0764D5",
"}. c #2E7CC9",
"|. c #2078DA",
" X c #257DD3",
".X c #0765E0",
"XX c #046AEC",
"oX c #036DFB",
"OX c #0273FA",
"+X c #027BFA",
"@X c #0774F5",
"#X c #0E8398",
"$X c #2E88B9",
"%X c #3B80B7",
"&X c #658B9C",
"*X c #5387A3",
"=X c #5A90AC",
"-X c #4788B9",
";X c #4C95BE",
":X c #54A3B0",
">X c #6AA6BE",
",X c #0583CE",
"<X c #048ED6",
"1X c #0B94DE",
"2X c #268DC8",
"3X c #3F84C0",
"4X c #3085CE",
"5X c #2F96CD",
"6X c #2E98CB",
"7X c #3C96C1",
"8X c #2882D0",
"9X c #2080DA",
"0X c #2993D5",
"qX c #31A2DE",
"wX c #0D8BEF",
"eX c #138CE0",
"rX c #0D97E7",
"tX c #0E9CEE",
"yX c #1495E7",
"uX c #0184FA",
"iX c #018DFA",
"pX c #1A83F4",
"aX c #0193FA",
"sX c #009CFA",
"dX c #328AEE",
"fX c #0CA3F3",
"gX c #00A1FA",
"hX c #14A9F5",
"jX c #34ADEC",
"kX c #35A6E9",
"lX c #25A5F5",
"zX c #38AEF2",
"xX c #30AAF3",
"cX c #2DB0F4",
"vX c #77A2C1",
"bX c #67B0C0",
"nX c #7CBCDC",
"mX c #78B7DC",
"MX c #4B95E8",
"NX c #5BA0E4",
"BX c #4AB1EF",
"VX c #5FB6E2",
"CX c #59B9E9",
"ZX c #66B7E0",
"AX c #868282",
"SX c #898686",
"DX c #8B8888",
"FX c #AEB591",
"GX c #B3BC9C",
"HX c #89A8B7",
"JX c #83B5CE",
"KX c #8ABBD7",
"LX c #86BDD9",
"PX c #96BFD3",
"IX c #9BC0D3",
"UX c None",
/* pixels */
"UXUXUXUXUXUXUXUXUXUXUXUXUXUXIXKXnXIXUXUXUXUXUXUXUXUXUXUXUXUX",
"UXUXUXUXUXUXUXUXIXLXnXZXCXCXcX5X2XjXUXUXUXUXUXUXUXUXUXUXUXUX",
"UXUXPXLXmXVXjXhXfXgXzXBXlX<X8 i y P.UXUXUXUXUXUXUXUXUXUXUXUX",
"LXfXgXsXsXsXsX0X( { :XiXiX< z k T m HXUXUXUXUXUXUXUXUXUXUXUX",
"mXaXaXaXiXiXwX} ^ ^ ) 3XuX5 a P e f vXUXUXUXUXUXUXUXUXUXUXUX",
"KXuXuXuXuXuX` R E ! ~ s.L.t j k p I d UXUXUXUXUXUXUXUXUXUXUX",
"IXuX+X+X+X Xa.FXF.D.GXd.N a T f 7XN I a a UXUXUXUXUXUXUXUXUX",
"UXpXOXOXOX@Xf.M.n.z.N.U j [ p 8XaXtX/.J L p UXUXUXUXUXUXUXUX",
"UXdXOXoXoXoXk.j.p.b n j I e _.+XuXiXsX*Xd I a a UXUXUXUXUXUX",
"UXMXoXoXoXoXB._ h.c t a k F oXOX+X9X-X&X7XM K l a UXUXUXUXUX",
"UXNXoX`.U.r.7.q.0.z k Y c R.oXoX4Xx.W ^ V.jXH j I p UXd d UX",
"UXbX4.q.0.8.*.&.x K I e :.9.r.[.j.m.b.Q { iXxX=Xa I p k e d ",
"UXPX=.%.$.+.O.; t k r p 6 O.&.5.v v g.S.u.Y.-.#XqXM e I a d ",
"UXUX-.| # 1 0 p j K g I a C ;.%.9.z G.Z.K.X.#.= eXs AXa a UX",
"UXUX>XJXUXUXa K Y g yX~.L J g 2 +.o 6.Q.I.@ #.1 A I r p UXUX",
"UXUXUXUXUXd k K p }.iXaX$XJ I p B . O.<., {.J.D r K e UXUXUX",
"UXUXUXUXUXr a j (.OX+XuXaXrXA L k f $ $.2.Y.W.e AXr d UXUXUX",
"UXUXUXUXe K I G oXoXOX%X] ' V.).J K s 3 O.>.g AXw a UXUXUXUX",
"UXUXUXp I K f e.].oX|.v.c./ ) kX;XM I a B C K r r UXUXUXUXUX",
"UXUXd j a a 7 %.3.t.l.i.n.A.Q uX,X6XG K r w Y e UXUXUXUXUXUX",
"UXUXe K k e J 4 +.*.,.n h m.C.9 ;.;.1X^.e DXw d UXUXUXUXUXUX",
"UXUXUXe d g l k V ..%.+ y.H.'.& X.X.T.g Y w a UXUXUXUXUXUXUX",
"UXUXUXUXUXUXd k k M - O  .w..X: % $ Z e K p UXUXUXUXUXUXUXUX",
"UXUXUXUXUXUXUXUXJ l J > X &.- `.XX!.q SXe UXUXUXUXUXUXUXUXUX",
"UXUXUXUXUXUXUXUXUXd j k i o.%.1.E.u SX  d UXUXUXUXUXUXUXUXUX",
"UXUXUXUXUXUXUXUXUXUXa k l S * @.f K r a UXUXUXUXUXUXUXUXUXUX",
"UXUXUXUXUXUXUXUXUXUXUXUXk l J f w Y e UXUXUXUXUXUXUXUXUXUXUX",
"UXUXUXUXUXUXUXUXUXUXUXUXUXa r w DXq UXUXUXUXUXUXUXUXUXUXUXUX",
"UXUXUXUXUXUXUXUXUXUXUXUXUXUXr Y w d UXUXUXUXUXUXUXUXUXUXUXUX",
"UXUXUXUXUXUXUXUXUXUXUXUXUXd e l a UXUXUXUXUXUXUXUXUXUXUXUXUX",
"UXUXUXUXUXUXUXUXUXUXUXUXUXUXUXd UXUXUXUXUXUXUXUXUXUXUXUXUXUX"
};
