/* XPM */
static char * icon_flux_xpm[] = {
"32 32 846 2",
"  	c None",
". 	c #FAFAFE",
"+ 	c #FCFBFF",
"@ 	c #FDFDFF",
"# 	c #FEFEFF",
"$ 	c #FFFFFF",
"% 	c #FAFAFD",
"& 	c #F7F8FB",
"* 	c #F6F8FB",
"= 	c #F6F7FB",
"- 	c #F7F8FA",
"; 	c #FBFAFD",
"> 	c #FDFBFF",
", 	c #FAFAFC",
"' 	c #F7F7FC",
") 	c #F5F5FA",
"! 	c #F4F4F8",
"~ 	c #F1F1F7",
"{ 	c #EFEFF6",
"] 	c #EDEDF4",
"^ 	c #EBECF3",
"/ 	c #E9EAF2",
"( 	c #E7E9F2",
"_ 	c #FDFCFF",
": 	c #F2F2F9",
"< 	c #D7DCEE",
"[ 	c #D1D6ED",
"} 	c #D7DDF0",
"| 	c #E1E5F5",
"1 	c #E6EBF7",
"2 	c #E7EBF7",
"3 	c #E2E8F6",
"4 	c #DBE0F2",
"5 	c #D1D8EE",
"6 	c #D2D7EC",
"7 	c #E5E7F4",
"8 	c #F8F8FB",
"9 	c #F6F6FB",
"0 	c #F3F3F8",
"a 	c #EEEEF5",
"b 	c #ECEDF3",
"c 	c #EAEBF2",
"d 	c #E6E7F1",
"e 	c #E4E6F0",
"f 	c #EEEFF6",
"g 	c #C3C8E4",
"h 	c #C5CBE8",
"i 	c #E3E6F3",
"j 	c #F2F3FA",
"k 	c #F9F9FD",
"l 	c #FDFDFE",
"m 	c #F5F6FB",
"n 	c #EAECF7",
"o 	c #CED3EA",
"p 	c #BBC1E1",
"q 	c #DADDED",
"r 	c #F4F4F9",
"s 	c #F2F2F7",
"t 	c #ECECF3",
"u 	c #E8E9F2",
"v 	c #E5E6F0",
"w 	c #E2E4EE",
"x 	c #F9F9FE",
"y 	c #FCFCFE",
"z 	c #C9CCE5",
"A 	c #A6ADD3",
"B 	c #CACFEB",
"C 	c #DCDFF2",
"D 	c #E9EBF7",
"E 	c #F4F4FC",
"F 	c #F9FAFE",
"G 	c #FEFEFE",
"H 	c #FBFBFD",
"I 	c #EDEEF6",
"J 	c #DFE2EF",
"K 	c #D1D4E6",
"L 	c #AEB4D5",
"M 	c #B2B7D8",
"N 	c #E8E9F3",
"O 	c #F0F0F7",
"P 	c #EBEBF3",
"Q 	c #E7E8F1",
"R 	c #E3E5EF",
"S 	c #E0E2EE",
"T 	c #F8F8FD",
"U 	c #F7F8FC",
"V 	c #A7ADCF",
"W 	c #8E95BE",
"X 	c #B3B9DA",
"Y 	c #C6C9E7",
"Z 	c #D8D9F2",
"` 	c #E7E9F7",
" .	c #F3F4FC",
"..	c #FAF9FE",
"+.	c #FAFBFE",
"@.	c #F5F6FC",
"#.	c #EBECF5",
"$.	c #DBDDEB",
"%.	c #CACDDF",
"&.	c #B8BCD4",
"*.	c #9BA0C4",
"=.	c #8F97C1",
"-.	c #DDDEEC",
";.	c #E2E4ED",
">.	c #DFE0EC",
",.	c #F8F7FD",
"'.	c #989EC5",
").	c #6A72A3",
"!.	c #8F97BF",
"~.	c #A8AED4",
"{.	c #C0C5E4",
"].	c #D5D7F1",
"^.	c #E4E6F8",
"/.	c #F0F1FB",
"(.	c #F7F8FD",
"_.	c #FCFBFE",
":.	c #F8F8FC",
"<.	c #F2F2F8",
"[.	c #E7E8F2",
"}.	c #D7DAE9",
"|.	c #C5C7DC",
"1.	c #ADB0CA",
"2.	c #979BBB",
"3.	c #737BA6",
"4.	c #7B82B0",
"5.	c #DADCEA",
"6.	c #E1E3ED",
"7.	c #DDDFEC",
"8.	c #F6F6FD",
"9.	c #A6AACE",
"0.	c #545B95",
"a.	c #5C639B",
"b.	c #868EBA",
"c.	c #A1A7CF",
"d.	c #B9C0E2",
"e.	c #CFD1ED",
"f.	c #DFE1F7",
"g.	c #EAEDFA",
"h.	c #F2F3FC",
"i.	c #F3F3FA",
"j.	c #ECEDF5",
"k.	c #E0E2EF",
"l.	c #D1D3E4",
"m.	c #BEC0D8",
"n.	c #A7ABCC",
"o.	c #8C92B4",
"p.	c #6B739F",
"q.	c #525A8E",
"r.	c #7B81B1",
"s.	c #DFE1EE",
"t.	c #E4E6F1",
"u.	c #DCDEEB",
"v.	c #F5F6FD",
"w.	c #CACDE3",
"x.	c #4E5692",
"y.	c #3A4387",
"z.	c #505897",
"A.	c #7A82B1",
"B.	c #979FC9",
"C.	c #B1B8DD",
"D.	c #C6CAE9",
"E.	c #D7DAF3",
"F.	c #E2E5F9",
"G.	c #EFF1FB",
"H.	c #F2F2FA",
"I.	c #EFF0F8",
"J.	c #EBEDF8",
"K.	c #E3E5F4",
"L.	c #D8DBEE",
"M.	c #C7CAE1",
"N.	c #B3B7D3",
"O.	c #9CA2C9",
"P.	c #7F87AE",
"Q.	c #5E6795",
"R.	c #3B4475",
"S.	c #444D81",
"T.	c #9499BF",
"U.	c #E3E5F1",
"V.	c #E0E3F0",
"W.	c #DDDFED",
"X.	c #F4F5FC",
"Y.	c #F0F2F9",
"Z.	c #6C73A8",
"`.	c #2F3883",
" +	c #2B3684",
".+	c #424A90",
"++	c #6F76A9",
"@+	c #8C94C1",
"#+	c #A7AED6",
"$+	c #BAC3E5",
"%+	c #CDD2EF",
"&+	c #D9DDF5",
"*+	c #E6EAF9",
"=+	c #E6E8F3",
"-+	c #E7E9F4",
";+	c #E7EBF9",
">+	c #E4E7F9",
",+	c #DBDEF5",
"'+	c #CFD2EB",
")+	c #BFC5E5",
"!+	c #A8ADD0",
"~+	c #8C93B8",
"{+	c #7078A0",
"]+	c #4C5684",
"^+	c #2F3A65",
"/+	c #2B3764",
"(+	c #495285",
"_+	c #E0E2F0",
":+	c #DCDFED",
"<+	c #F3F3FC",
"[+	c #C2C5DD",
"}+	c #363F88",
"|+	c #242D7E",
"1+	c #263084",
"2+	c #323B8C",
"3+	c #5A619F",
"4+	c #7D85B5",
"5+	c #99A1CD",
"6+	c #B0B9DE",
"7+	c #C1C8E9",
"8+	c #CFD5F1",
"9+	c #D7DDF5",
"0+	c #DDE2F7",
"a+	c #DDE1F3",
"b+	c #DFE1F4",
"c+	c #DBDEF0",
"d+	c #D4D7EC",
"e+	c #CACEE8",
"f+	c #C4CBEA",
"g+	c #B4BDE2",
"h+	c #A1A8D2",
"i+	c #838BBB",
"j+	c #686FA5",
"k+	c #384279",
"l+	c #263360",
"m+	c #1E2E57",
"n+	c #2A3763",
"o+	c #878DB6",
"p+	c #D8DAE8",
"q+	c #F2F3FB",
"r+	c #7E85B6",
"s+	c #293382",
"t+	c #23297B",
"u+	c #263087",
"v+	c #2F398E",
"w+	c #3C4597",
"x+	c #666DAA",
"y+	c #8991C2",
"z+	c #A1A9D4",
"A+	c #C2CBEC",
"B+	c #CCD4F1",
"C+	c #CFD5F0",
"D+	c #C8CDE7",
"E+	c #C9CDE6",
"F+	c #C5CAE4",
"G+	c #BEC3E0",
"H+	c #B3B8D8",
"I+	c #A8AED3",
"J+	c #9FA7CF",
"K+	c #828AB8",
"L+	c #636C9D",
"M+	c #3E4781",
"N+	c #293567",
"O+	c #1F2E58",
"P+	c #1A2C52",
"Q+	c #212F5B",
"R+	c #4F5791",
"S+	c #D0D2E3",
"T+	c #D6D8E6",
"U+	c #F0F2FA",
"V+	c #E6E8F5",
"W+	c #4E5799",
"X+	c #252F7F",
"Y+	c #222A7F",
"Z+	c #263187",
"`+	c #2D3790",
" @	c #374197",
".@	c #454DA0",
"+@	c #636AAF",
"@@	c #8C93C7",
"#@	c #A6ACDA",
"$@	c #B2BBE3",
"%@	c #BBC4E9",
"&@	c #AFB7DB",
"*@	c #AEB4D7",
"=@	c #ADB5D8",
"-@	c #ABB1D6",
";@	c #A2A9CF",
">@	c #969DC6",
",@	c #868EB9",
"'@	c #727AA8",
")@	c #50598C",
"!@	c #323C77",
"~@	c #28336B",
"{@	c #243165",
"]@	c #212F68",
"^@	c #192B4F",
"/@	c #1A2C51",
"(@	c #323D72",
"_@	c #B1B6D3",
":@	c #D3D6E5",
"<@	c #EFF1FA",
"[@	c #D2D4E9",
"}@	c #3A438D",
"|@	c #242E80",
"1@	c #242E83",
"2@	c #28338A",
"3@	c #2E3891",
"4@	c #343E98",
"5@	c #3F489D",
"6@	c #4C54A6",
"7@	c #5D64B0",
"8@	c #797FC0",
"9@	c #9096D0",
"0@	c #747CB3",
"a@	c #7E85B7",
"b@	c #858DBD",
"c@	c #868EBD",
"d@	c #8188B9",
"e@	c #747BB0",
"f@	c #6068A5",
"g@	c #485196",
"h@	c #313B88",
"i@	c #29337C",
"j@	c #263074",
"k@	c #232D68",
"l@	c #212E5F",
"m@	c #202E67",
"n@	c #1B2B55",
"o@	c #28366A",
"p@	c #9195C0",
"q@	c #D2D5E3",
"r@	c #EEEFFA",
"s@	c #BFC4DE",
"t@	c #323C89",
"u@	c #253081",
"v@	c #273286",
"w@	c #2B358D",
"x@	c #303A94",
"y@	c #354099",
"z@	c #3C47A0",
"A@	c #474FA6",
"B@	c #535AAC",
"C@	c #6A6FBD",
"D@	c #484EA8",
"E@	c #343D9A",
"F@	c #3A429F",
"G@	c #3D45A1",
"H@	c #3E46A1",
"I@	c #3A439F",
"J@	c #36409B",
"K@	c #2F3995",
"L@	c #29328F",
"M@	c #242C86",
"N@	c #23297A",
"O@	c #222A72",
"P@	c #222D68",
"Q@	c #1D2D56",
"R@	c #22306F",
"S@	c #192B51",
"T@	c #283474",
"U@	c #D2D5E5",
"V@	c #ECEEFA",
"W@	c #B3B8D3",
"X@	c #303A7C",
"Y@	c #283388",
"Z@	c #2D378E",
"`@	c #323C95",
" #	c #394298",
".#	c #4048A2",
"+#	c #484FA5",
"@#	c #5259B1",
"##	c #6C6DC0",
"$#	c #3E44A8",
"%#	c #2832A0",
"&#	c #2D39A6",
"*#	c #2F3DAA",
"=#	c #2F3DA9",
"-#	c #2E3AA7",
";#	c #2934A2",
">#	c #262D9B",
",#	c #212692",
"'#	c #212487",
")#	c #22277C",
"!#	c #212E60",
"~#	c #1E2E58",
"{#	c #1C2C56",
"]#	c #1F2D62",
"^#	c #27327A",
"/#	c #747AAE",
"(#	c #D2D5E4",
"_#	c #EBEDF9",
":#	c #BCC0D9",
"<#	c #2E396F",
"[#	c #2F388F",
"}#	c #343D95",
"|#	c #3A4399",
"1#	c #434BA3",
"2#	c #4E55AC",
"3#	c #6468BB",
"4#	c #7B7CCA",
"5#	c #3038A5",
"6#	c #2530A4",
"7#	c #2836A8",
"8#	c #293AAC",
"9#	c #2837A9",
"0#	c #2632A6",
"a#	c #232B9F",
"b#	c #202697",
"c#	c #21248C",
"d#	c #222580",
"e#	c #232975",
"f#	c #222D69",
"g#	c #1A2B54",
"h#	c #26336F",
"i#	c #7980B4",
"j#	c #CFD2E4",
"k#	c #E9ECF7",
"l#	c #C9CCE2",
"m#	c #313C6B",
"n#	c #233070",
"o#	c #2A348A",
"p#	c #303A91",
"q#	c #364096",
"r#	c #3D469D",
"s#	c #4A51A7",
"t#	c #6064B8",
"u#	c #7979C8",
"v#	c #898AD5",
"w#	c #2D37A7",
"x#	c #2B3FB0",
"y#	c #2C42B2",
"z#	c #2B40B0",
"A#	c #2A3BAD",
"B#	c #2633A6",
"C#	c #222B9F",
"D#	c #212593",
"E#	c #212486",
"F#	c #232976",
"G#	c #222C69",
"H#	c #2B367C",
"I#	c #878DBB",
"J#	c #CDCFE1",
"K#	c #E7EAF6",
"L#	c #DBDEEE",
"M#	c #424D7A",
"N#	c #1C2D58",
"O#	c #2D378C",
"P#	c #333D93",
"Q#	c #454CA0",
"R#	c #565DAF",
"S#	c #7474C5",
"T#	c #8989D4",
"U#	c #9FA2E3",
"V#	c #9BA2E0",
"W#	c #3547B3",
"X#	c #3049B5",
"Y#	c #314CB6",
"Z#	c #324DB6",
"`#	c #304AB5",
" $	c #2C43B2",
".$	c #293BAD",
"+$	c #2531A5",
"@$	c #21279A",
"#$	c #20248B",
"$$	c #222879",
"%$	c #222C6B",
"&$	c #202F5E",
"*$	c #1C2D54",
"=$	c #1C2D5A",
"-$	c #343E8F",
";$	c #A2A7C7",
">$	c #C3C5D6",
",$	c #E5E8F5",
"'$	c #E5E8F4",
")$	c #6D759C",
"!$	c #1E2E55",
"~$	c #263373",
"{$	c #3D4699",
"]$	c #4B53A7",
"^$	c #686BBB",
"/$	c #8282CF",
"($	c #9A9CE0",
"_$	c #AFB6EE",
":$	c #C3CFF5",
"<$	c #AEB9E5",
"[$	c #495EBD",
"}$	c #435CBC",
"|$	c #415ABC",
"1$	c #687AC9",
"2$	c #7E90D3",
"3$	c #3446B2",
"4$	c #2936A8",
"5$	c #242B9D",
"6$	c #212590",
"7$	c #22277B",
"8$	c #222C6C",
"9$	c #1D2D55",
"0$	c #192B50",
"a$	c #29357C",
"b$	c #454E98",
"c$	c #B4B8CF",
"d$	c #B9BCD1",
"e$	c #E2E6F4",
"f$	c #E5E7F5",
"g$	c #AAAFCC",
"h$	c #27355F",
"i$	c #293673",
"j$	c #424A9D",
"k$	c #585EAD",
"l$	c #7477C5",
"m$	c #9091D9",
"n$	c #A8ACE8",
"o$	c #BFC9F1",
"p$	c #D5E1F9",
"q$	c #EAF0FC",
"r$	c #ECF0FA",
"s$	c #F1F3FB",
"t$	c #EAEFFA",
"u$	c #F2F6FE",
"v$	c #EDF2FC",
"w$	c #D5DEF6",
"x$	c #5963BC",
"y$	c #262FA0",
"z$	c #222793",
"A$	c #22267F",
"B$	c #1C2D55",
"C$	c #202F62",
"D$	c #333C92",
"E$	c #6E75AE",
"F$	c #B7BACF",
"G$	c #B6BACD",
"H$	c #E1E4F1",
"I$	c #E2E5F3",
"J$	c #D9DDED",
"K$	c #505A85",
"L$	c #1B2C51",
"M$	c #2A386F",
"N$	c #6164B1",
"O$	c #8081CC",
"P$	c #9A9EDE",
"Q$	c #B4BBEC",
"R$	c #CDD9F5",
"S$	c #E6ECFA",
"T$	c #F8FBFF",
"U$	c #FDFEFF",
"V$	c #F2F7FE",
"W$	c #525FBB",
"X$	c #262FA1",
"Y$	c #232894",
"Z$	c #22267D",
"`$	c #222C6D",
" %	c #1B2C53",
".%	c #293672",
"+%	c #404A95",
"@%	c #A2A6C7",
"#%	c #B6BACF",
"$%	c #DFE1F1",
"%%	c #E1E5F3",
"&%	c #E3E7F5",
"*%	c #A8ADCB",
"=%	c #21305E",
"-%	c #6066AE",
";%	c #878AD0",
">%	c #A4A7E3",
",%	c #BDC7EF",
"'%	c #D8E1F7",
")%	c #EBF0FC",
"!%	c #F3F7FE",
"~%	c #F9FCFF",
"{%	c #F9FBFF",
"]%	c #ECF1FC",
"^%	c #CDD4F0",
"/%	c #2933A2",
"(%	c #22277A",
"_%	c #222C6A",
":%	c #202F5C",
"<%	c #1B2C52",
"[%	c #313D79",
"}%	c #6E75A5",
"|%	c #B5B9D1",
"1%	c #B5B8CF",
"2%	c #D1D3EA",
"3%	c #D6D8EE",
"4%	c #DBDDF2",
"5%	c #CACCE0",
"6%	c #7077A0",
"7%	c #24325D",
"8%	c #2D3A6B",
"9%	c #7174BF",
"0%	c #8D90D3",
"a%	c #A9AEE3",
"b%	c #C2CCF0",
"c%	c #DCE5F9",
"d%	c #FAFDFF",
"e%	c #E5EBFA",
"f%	c #4A51AD",
"g%	c #22268F",
"h%	c #232978",
"i%	c #1F2E5A",
"j%	c #2A386B",
"k%	c #525B95",
"l%	c #ADB0CC",
"m%	c #B6B8D1",
"n%	c #B5B7CE",
"o%	c #D1D2EA",
"p%	c #D3D4ED",
"q%	c #C5C7E3",
"r%	c #B8BCD8",
"s%	c #B4B7D5",
"t%	c #555E8B",
"u%	c #313D6F",
"v%	c #7277BF",
"w%	c #8E92D2",
"x%	c #ACB1E5",
"y%	c #C4CEF1",
"z%	c #DBE4F8",
"A%	c #E9EFFC",
"B%	c #F0F5FE",
"C%	c #F5F9FF",
"D%	c #F7FBFF",
"E%	c #D8E2F8",
"F%	c #C6CFF5",
"G%	c #BFC6F2",
"H%	c #BDC3E7",
"I%	c #2A319B",
"J%	c #212588",
"K%	c #222A73",
"L%	c #222E64",
"M%	c #2B3969",
"N%	c #585FA8",
"O%	c #9FA3C4",
"P%	c #B4B6CF",
"Q%	c #B5B7CF",
"R%	c #D1D2ED",
"S%	c #C7C9E5",
"T%	c #B7B9D8",
"U%	c #B8BCD9",
"V%	c #B4B8D6",
"W%	c #A9ACCA",
"X%	c #666CA3",
"Y%	c #686DB4",
"Z%	c #8D92D2",
"`%	c #A9AFE4",
" &	c #E5ECFB",
".&	c #DBE1F8",
"+&	c #DEE5FA",
"@&	c #E1E8FA",
"#&	c #DCE4FA",
"$&	c #C5D0F5",
"%&	c #B9C1F2",
"&&	c #A9AEEA",
"*&	c #777CCB",
"=&	c #222792",
"-&	c #23287D",
";&	c #232C6E",
">&	c #2F3A6F",
",&	c #6169AA",
"'&	c #9599BC",
")&	c #AEB0CB",
"!&	c #B1B3CF",
"~&	c #B3B5D0",
"{&	c #CECFEA",
"]&	c #B8BBDB",
"^&	c #B6B9DB",
"/&	c #B5B8D9",
"(&	c #B1B5D5",
"_&	c #AAADC9",
":&	c #9EA1BF",
"<&	c #7F84B5",
"[&	c #7F85C2",
"}&	c #A7ACE0",
"|&	c #BBC4EC",
"1&	c #CFD9F4",
"2&	c #BCC3ED",
"3&	c #ACB1E9",
"4&	c #B7BFEE",
"5&	c #BCC5F1",
"6&	c #BEC8F2",
"7&	c #B8C1EF",
"8&	c #AFB6EB",
"9&	c #A3A6E3",
"0&	c #9699D9",
"a&	c #3B4291",
"b&	c #373F81",
"c&	c #4B548D",
"d&	c #7C80B8",
"e&	c #9397B4",
"f&	c #A2A5BF",
"g&	c #ABADC8",
"h&	c #B0B3CE",
"i&	c #B3B5CF",
"j&	c #CFCFEB",
"k&	c #BCBFDF",
"l&	c #B4B7DC",
"m&	c #B5B8DC",
"n&	c #B2B5D8",
"o&	c #ADB0D2",
"p&	c #A5A9C9",
"q&	c #9EA2BF",
"r&	c #9B9FC2",
"s&	c #A1A7D3",
"t&	c #B0B6DF",
"u&	c #B7BEE6",
"v&	c #B4B9E4",
"w&	c #B8BDE8",
"x&	c #B2B7E6",
"y&	c #B1B7E6",
"z&	c #B2B8E6",
"A&	c #AEB4E5",
"B&	c #A9ADE2",
"C&	c #A2A6DD",
"D&	c #A9AEDF",
"E&	c #9197C6",
"F&	c #9499C7",
"G&	c #989DC0",
"H&	c #979AB5",
"I&	c #9EA1BC",
"J&	c #A7A9C4",
"K&	c #ADB0CB",
"L&	c #D1D1EC",
"M&	c #BDBFE2",
"N&	c #B3B5DC",
"O&	c #B4B7DD",
"P&	c #B2B4DA",
"Q&	c #ADB1D4",
"R&	c #A5A9CC",
"S&	c #9DA2C2",
"T&	c #999DBD",
"U&	c #9DA1C0",
"V&	c #A3A8CC",
"W&	c #A8AED5",
"X&	c #B2B9DE",
"Y&	c #BBC3E6",
"Z&	c #C0C8E8",
"`&	c #B2B8E4",
" *	c #ACB1E2",
".*	c #ACB1E0",
"+*	c #ADB3DF",
"@*	c #B0B5DD",
"#*	c #A7ADD5",
"$*	c #A0A6CA",
"%*	c #9B9FBF",
"&*	c #9598B5",
"**	c #979AB7",
"=*	c #9FA2BE",
"-*	c #A7AAC5",
";*	c #ADB0CD",
">*	c #B0B3CF",
",*	c #B2B5CF",
"'*	c #D4D4EF",
")*	c #C0C3E5",
"!*	c #B3B5DB",
"~*	c #AEB2D7",
"{*	c #A8ADD1",
"]*	c #A2A7C9",
"^*	c #9CA1C2",
"/*	c #9A9EBE",
"(*	c #9EA2C3",
"_*	c #A0A6C8",
":*	c #A2A7CA",
"<*	c #A4A9CB",
"[*	c #A5AACD",
"}*	c #A4A9CD",
"|*	c #9FA4C4",
"1*	c #9CA0C1",
"2*	c #9599B7",
"3*	c #979BB9",
"4*	c #9DA1BE",
"5*	c #A4A7C4",
"6*	c #ABADCA",
"7*	c #AFB1CE",
"8*	c #B2B4D0",
"9*	c #B4B7CF",
"0*	c #D3D4EF",
"a*	c #BABCDF",
"b*	c #B3B5DD",
"c*	c #B3B6DE",
"d*	c #B2B6DE",
"e*	c #B1B5DB",
"f*	c #ADB2D7",
"g*	c #A8ADD2",
"h*	c #A3A9CC",
"i*	c #9FA4C7",
"j*	c #9BA1C3",
"k*	c #9A9FC1",
"l*	c #999EBE",
"m*	c #999EBD",
"n*	c #989CBC",
"o*	c #9A9FBF",
"p*	c #9FA3C3",
"q*	c #A3A7C7",
"r*	c #A9ACCB",
"s*	c #AFB0CF",
"t*	c #B1B2D1",
"u*	c #B4B5D2",
"v*	c #C7C9E8",
"w*	c #B3B6DD",
"x*	c #B4B7DF",
"y*	c #B3B7E0",
"z*	c #B3B7DF",
"A*	c #B2B7DD",
"B*	c #AFB3DA",
"C*	c #AAB0D5",
"D*	c #A6ABCF",
"E*	c #A0A5C8",
"F*	c #9BA0C1",
"G*	c #979CBC",
"H*	c #9498B9",
"I*	c #9196B6",
"J*	c #9094B3",
"K*	c #8F93B1",
"L*	c #9094B2",
"M*	c #9095B4",
"N*	c #9398B8",
"O*	c #969BBB",
"P*	c #9B9FC0",
"Q*	c #9FA4C6",
"R*	c #A5A9CA",
"S*	c #ABAECE",
"T*	c #AFB1D1",
"U*	c #B3B2D3",
"V*	c #B4B4D2",
"W*	c #B5B6D1",
"X*	c #C6C7E7",
"Y*	c #B5B9E1",
"Z*	c #B5BAE1",
"`*	c #B5B9E0",
" =	c #B3B7DE",
".=	c #B0B6DC",
"+=	c #AEB3D8",
"@=	c #AAAFD4",
"#=	c #A1A5C8",
"$=	c #A0A5C9",
"%=	c #A1A6CA",
"&=	c #A4A8CC",
"*=	c #A5AACE",
"==	c #A9ADD1",
"-=	c #ACAFD3",
";=	c #AFB0D4",
">=	c #B1B2D5",
",=	c #B3B2D5",
"'=	c #B4B3D4",
")=	c #B4B4D4",
"!=	c #B5B5D2",
"~=	c #B5B7D0",
". . + @ # $ $ $ $ $ $ $ # % & * = * - ; > . , ' ) ! ~ { ] ^ / ( ",
". . > _ # $ $ $ $ $ : < [ } | 1 2 3 4 5 6 7 8 9 ) 0 ~ a b c d e ",
". . + _ @ $ $ $ f g h i j k l $ $ l . m n o p q r s ~ a t u v w ",
"x . + > @ # y z A B C D E F # $ $ G H 9 I J K L M N O ] P Q R S ",
"T . . > _ U V W X Y Z `  ...@ $ $ # +.@.#.$.%.&.*.=.-.b / v ;.>.",
"' . . . ,.'.).!.~.{.].^./.(.+ @ l _.:.<.[.}.|.1.2.3.4.5.u e 6.7.",
"8.T . x 9.0.a.b.c.d.e.f.g.h.(.F k ' i.j.k.l.m.n.o.p.q.r.s.t.S u.",
"v.' F w.x.y.z.A.B.C.D.E.F.g.G.H.H.I.J.K.L.M.N.O.P.Q.R.S.T.U.V.W.",
"X.8.Y.Z.`. +.+++@+#+$+%+&+F.*+=+-+;+>+,+'+)+!+~+{+]+^+/+(+w._+:+",
"<+v.[+}+|+1+2+3+4+5+6+7+8+9+0+a+b+c+d+e+f+g+h+i+j+k+l+m+n+o+W.p+",
"q+h.r+s+t+u+v+w+x+y+z+g+A+B+C+D+E+F+G+H+I+J+K+L+M+N+O+P+Q+R+S+T+",
"U+V+W+X+Y+Z+`+ @.@+@@@#@$@%@&@*@=@-@;@>@,@'@)@!@~@{@]@^@/@(@_@:@",
"<@[@}@|@1@2@3@4@5@6@7@8@9@0@a@b@c@d@e@f@g@h@i@j@k@l@m@n@^@o@p@q@",
"r@s@t@u@v@w@x@y@z@A@B@C@D@E@F@G@H@I@J@K@L@M@N@O@P@l@Q@R@S@T@r+U@",
"V@W@X@1+Y@Z@`@ #.#+#@###$#%#&#*#=#-#;#>#,#'#)#O@P@!#~#{#]#^#/#(#",
"_#:#<#v@Y@[#}#|#1#2#3#4#5#6#7#8#8#9#0#a#b#c#d#e#f#!#~#/@g#h#i#j#",
"k#l#m#n#o#p#q#r#s#t#u#v#w#8#x#y#y#z#A#B#C#D#E#F#G#l@~#^@^@H#I#J#",
"K#L#M#N#O#P# @Q#R#S#T#U#V#W#X#Y#Z#`# $.$+$@$#$$$%$&$*$^@=$-$;$>$",
",$'$)$!$~$q#{$]$^$/$($_$:$<$[$}$|$1$2$3$4$5$6$7$8$!#9$0$a$b$c$d$",
"e$f$g$h$^@i$j$k$l$m$n$o$p$q$r$s$t$u$v$w$x$y$z$A$8$!#B$C$D$E$F$G$",
"H$I$J$K$L$/@M$N$O$P$Q$R$S$u$T$@ U$T$V$q$W$X$Y$Z$`$l@ %.%+%@%#%G$",
"$%%%&%*%n+/@=%-%;%>%,%'%)%!%~%@ U${%!%]%^%/%z$(%_%:%<%[%}%|%#%1%",
"2%3%4%5%6%7%8%9%0%a%b%c%)%V$T$d%d%T$!%]%e%f%g%h%P@i%j%k%l%m%1%n%",
"o%p%q%r%s%t%u%v%w%x%y%z%A%B%C%D%!%E%F%G%H%I%J%K%L%M%N%O%P%Q%Q%n%",
"R%S%T%U%V%W%X%Y%Z%`%b%E% &.&+&@&#&$&%&&&*&=&-&;&>&,&'&)&!&~&Q%n%",
"{&]&^&/&(&_&:&<&[&}&|&1&2&3&4&5&6&7&8&9&0&a&b&c&d&e&f&g&h&i&P%Q%",
"j&k&l&m&n&o&p&q&r&s&t&u&v&w&x&y&z&A&B&C&D&E&F&G&H&I&J&K&!&~&P%Q%",
"L&M&N&O&P&Q&R&S&T&U&V&W&X&Y&Z&`& *.*+*@*#*$*%*&***=*-*;*>*,*P%Q%",
"'*)*!*N&N&~*{*]*^*/*%*(*_*:*<*[*[*}*:*|*1*2.2*3*4*5*6*7*8*~&9*Q%",
"0*a*b*c*d*e*f*g*h*i*j*k*l*T&m*l*T&T&n*2.2.n*o*p*q*r*s*t*u*~&Q%Q%",
"v*w*x*y*z*A*B*C*D*E*F*G*H*I*J*K*K*K*L*M*N*O*P*Q*R*S*T*U*V*W*Q%Q%",
"X*d*x*Y*Z*`*`* =.=+=@={*[*V&:*#=$=E*E*%=&=*===-=;=>=,='=)=!=~=Q%"};
